<svg width="35" height="35" viewBox="0 0 35 35" fill="none" xmlns="http://www.w3.org/2000/svg">
<g clip-path="url(#clip0_11_196)">
<path d="M0 17.5C0 7.83502 7.83502 0 17.5 0H25.5405C30.7648 0 35 4.23515 35 9.45946V17.5C35 27.1649 27.1649 35 17.5 35C7.83502 35 0 27.1649 0 17.5Z" fill="url(#paint0_linear_11_196)"/>
<path d="M26.7969 24.714C26.7969 24.302 26.6747 23.8992 26.4458 23.5566C26.2169 23.214 25.8916 22.947 25.5109 22.7893C25.1303 22.6317 24.7114 22.5904 24.3073 22.6708C23.9032 22.7512 23.532 22.9496 23.2407 23.2409C22.9493 23.5323 22.7509 23.9035 22.6705 24.3076C22.5901 24.7117 22.6314 25.1305 22.7891 25.5112C22.9467 25.8918 23.2138 26.2172 23.5563 26.4461C23.8989 26.675 24.3017 26.7972 24.7137 26.7972C25.266 26.7966 25.7955 26.5769 26.1861 26.1864C26.5766 25.7958 26.7963 25.2663 26.7969 24.714ZM23.4433 24.714C23.4433 24.4627 23.5178 24.2171 23.6574 24.0082C23.797 23.7993 23.9954 23.6364 24.2275 23.5403C24.4597 23.4441 24.7151 23.419 24.9615 23.468C25.208 23.517 25.4343 23.638 25.612 23.8157C25.7897 23.9933 25.9107 24.2197 25.9597 24.4661C26.0087 24.7126 25.9836 24.968 25.8874 25.2001C25.7912 25.4323 25.6284 25.6307 25.4195 25.7703C25.2106 25.9099 24.965 25.9844 24.7137 25.9844C24.3769 25.984 24.054 25.85 23.8158 25.6119C23.5776 25.3737 23.4437 25.0508 23.4433 24.714ZM24.7147 20.8603C24.287 20.8595 23.8621 20.9303 23.4577 21.0698L23.1655 20.729C22.4893 19.9404 21.657 18.9699 20.7676 17.933L28.49 7.26685C28.5487 7.18597 28.5756 7.08626 28.5655 6.9868C28.5553 6.88734 28.5089 6.7951 28.435 6.72773C28.3612 6.66035 28.2651 6.62257 28.1651 6.6216C28.0651 6.62063 27.9683 6.65655 27.8932 6.72248L18.3235 15.0854C17.4932 14.1183 16.6849 13.1779 15.9708 12.3483C15.8999 12.269 15.8006 12.2207 15.6944 12.2138C15.5883 12.2069 15.4836 12.242 15.403 12.3114C15.3223 12.3808 15.2721 12.4791 15.2631 12.5851C15.2542 12.6911 15.2871 12.7964 15.3549 12.8784C17.5592 15.4393 20.6584 19.0541 22.5484 21.258L23.0282 21.8176C23.0848 21.8837 23.1612 21.9298 23.2461 21.9492C23.331 21.9686 23.4198 21.9602 23.4996 21.9253C23.8827 21.7577 24.2964 21.6718 24.7145 21.6729C25.3921 21.6727 26.0503 21.8987 26.5849 22.3151C27.1194 22.7314 27.4997 23.3143 27.6654 23.9713C27.8311 24.6283 27.7728 25.3218 27.4996 25.9418C27.2265 26.5619 26.7542 27.0731 26.1576 27.3943C25.5611 27.7155 24.8743 27.8284 24.2063 27.715C23.5383 27.6017 22.9272 27.2686 22.47 26.7686C22.0128 26.2686 21.7355 25.6302 21.6822 24.9548C21.6289 24.2793 21.8026 23.6054 22.1757 23.0398C22.2251 22.9656 22.2486 22.8773 22.2428 22.7884C22.237 22.6995 22.202 22.615 22.1434 22.5479L19.8066 19.8695C19.744 19.7977 19.6581 19.7502 19.564 19.7352L17.059 19.3395L16.9482 19.1804L16.9452 19.176L14.4042 15.5265V11.519C14.6766 11.4601 14.9206 11.3098 15.0958 11.0931C15.271 10.8763 15.3667 10.6061 15.3671 10.3274V9.67009C15.3667 9.38522 15.2666 9.10947 15.0843 8.89062C14.9019 8.67178 14.6487 8.52362 14.3686 8.47182C14.2776 7.95427 14.0073 7.48526 13.6051 7.14705C13.2029 6.80883 12.6945 6.62299 12.169 6.6221H9.81979C9.29428 6.62299 8.78587 6.80883 8.38367 7.14705C7.98147 7.48526 7.71117 7.95427 7.62015 8.47182C7.34003 8.52362 7.08685 8.67178 6.90448 8.89062C6.72211 9.10947 6.62205 9.38522 6.62163 9.67009V10.3274C6.62202 10.6061 6.71776 10.8763 6.89293 11.0931C7.06811 11.3098 7.31218 11.4601 7.58459 11.519V23.6705C7.31218 23.7294 7.06811 23.8797 6.89293 24.0965C6.71776 24.3132 6.62202 24.5834 6.62163 24.8621V25.5195C6.6221 25.8043 6.72218 26.08 6.90454 26.2988C7.08691 26.5176 7.34006 26.6657 7.62015 26.7175C7.71113 27.2351 7.98141 27.7042 8.38361 28.0424C8.78581 28.3807 9.29425 28.5666 9.81979 28.5674H12.169C12.6945 28.5666 13.2029 28.3807 13.6051 28.0424C14.0073 27.7042 14.2776 27.2351 14.3686 26.7175C14.6487 26.6657 14.9019 26.5176 15.0842 26.2988C15.2666 26.08 15.3667 25.8043 15.3671 25.5195V24.8621C15.3667 24.5834 15.271 24.3132 15.0958 24.0965C14.9206 23.8797 14.6766 23.7294 14.4042 23.6705V22.1612L16.5599 20.0207C16.6168 20.0705 16.6865 20.1033 16.7611 20.1156L19.2915 20.5153L21.3361 22.8586C20.9294 23.599 20.7772 24.4525 20.903 25.2879C21.0288 26.1232 21.4256 26.8941 22.0324 27.4819C22.6391 28.0696 23.4222 28.4418 24.2611 28.541C25.1 28.6402 25.9483 28.461 26.6754 28.031C27.4026 27.6009 27.9682 26.9439 28.2854 26.161C28.6026 25.378 28.6538 24.5125 28.431 23.6976C28.2082 22.8828 27.7238 22.1637 27.0524 21.651C26.381 21.1384 25.5595 20.8606 24.7147 20.8603ZM25.7311 9.69163L20.2234 17.2986L18.8532 15.7021L25.7311 9.69163ZM15.0802 17.9202L14.4042 18.5107V16.9491L15.0802 17.9202ZM8.39739 18.5202L13.5914 14.5071V16.9869L8.39739 21.0001V18.5202ZM13.5914 13.4799L8.39739 17.4931V15.0173L12.8883 11.5468H13.5914V13.4799ZM11.5588 11.5468L8.39739 13.9897V11.5468H11.5588ZM8.39739 22.0275L13.5914 18.0143V20.4923L9.51336 23.6431H8.39739V22.0275ZM10.8429 23.6431L13.5914 21.5195V23.6431H10.8429ZM9.81979 7.4349H12.169C12.4752 7.43529 12.7732 7.53432 13.0187 7.71731C13.2643 7.90031 13.4443 8.15754 13.5322 8.4509H8.45652C8.54442 8.15754 8.72449 7.90031 8.97003 7.71731C9.21558 7.53432 9.51355 7.43529 9.81979 7.4349ZM7.43443 10.3274V9.67009C7.43453 9.56234 7.47738 9.45903 7.55358 9.38284C7.62977 9.30665 7.73307 9.2638 7.84082 9.26369H14.1477C14.2555 9.2638 14.3588 9.30665 14.435 9.38284C14.5112 9.45903 14.554 9.56234 14.5541 9.67009V10.3274C14.554 10.4352 14.5112 10.5385 14.435 10.6147C14.3588 10.6909 14.2555 10.7337 14.1477 10.7338H7.84082C7.73307 10.7337 7.62977 10.6909 7.55358 10.6147C7.47738 10.5385 7.43453 10.4352 7.43443 10.3274ZM12.1688 27.7549H9.81958C9.51334 27.7545 9.21538 27.6554 8.96983 27.4724C8.72428 27.2894 8.54422 27.0322 8.45632 26.7389H13.532C13.4441 27.0322 13.2641 27.2894 13.0185 27.4724C12.773 27.6554 12.475 27.7545 12.1688 27.7549ZM14.5541 24.8623V25.5197C14.554 25.6274 14.5112 25.7307 14.435 25.8069C14.3588 25.8831 14.2555 25.926 14.1477 25.9261H7.84082C7.73307 25.926 7.62977 25.8831 7.55358 25.8069C7.47738 25.7307 7.43453 25.6274 7.43443 25.5197V24.8623C7.43453 24.7546 7.47738 24.6513 7.55358 24.5751C7.62977 24.4989 7.73307 24.456 7.84082 24.4559H14.1477C14.2555 24.456 14.3588 24.4989 14.435 24.5751C14.5112 24.6513 14.554 24.7546 14.5541 24.8623ZM14.404 19.5901L15.5472 18.5914L16.0779 19.3538L14.404 21.0159V19.5901ZM18.3826 17.6719C18.3826 17.8125 18.3409 17.9501 18.2628 18.067C18.1846 18.184 18.0735 18.2751 17.9436 18.329C17.8136 18.3828 17.6706 18.3969 17.5327 18.3694C17.3947 18.342 17.268 18.2742 17.1685 18.1748C17.0691 18.0753 17.0013 17.9486 16.9739 17.8106C16.9464 17.6727 16.9605 17.5297 17.0144 17.3997C17.0682 17.2698 17.1593 17.1587 17.2763 17.0805C17.3933 17.0024 17.5308 16.9607 17.6714 16.9607C17.86 16.9609 18.0407 17.0359 18.1741 17.1692C18.3074 17.3026 18.3824 17.4833 18.3826 17.6719Z" fill="#161616"/>
</g>
<defs>
<linearGradient id="paint0_linear_11_196" x1="-2.64865" y1="-1.7231e-08" x2="35" y2="35" gradientUnits="userSpaceOnUse">
<stop offset="0.385417" stop-color="#FFDB6E"/>
<stop offset="0.708333" stop-color="#FFBC5E"/>
</linearGradient>
<clipPath id="clip0_11_196">
<rect width="35" height="35" fill="white"/>
</clipPath>
</defs>
</svg>
