<svg width="729" height="185" viewBox="0 0 729 185" fill="none" xmlns="http://www.w3.org/2000/svg">
<g clip-path="url(#clip0_52_6)">
<path d="M0 92.5C0 41.4137 41.4137 0 92.5 0H135C162.614 0 185 22.3858 185 50V92.5C185 143.586 143.586 185 92.5 185C41.4137 185 0 143.586 0 92.5Z" fill="url(#paint0_linear_52_6)"/>
<path d="M141.641 130.631C141.641 128.453 140.995 126.324 139.785 124.514C138.575 122.703 136.855 121.292 134.843 120.458C132.831 119.625 130.617 119.407 128.481 119.832C126.345 120.256 124.383 121.305 122.843 122.845C121.303 124.385 120.255 126.347 119.83 128.483C119.405 130.619 119.623 132.833 120.456 134.845C121.29 136.857 122.701 138.577 124.512 139.787C126.323 140.997 128.452 141.642 130.63 141.642C133.549 141.639 136.348 140.478 138.412 138.414C140.476 136.35 141.638 133.551 141.641 130.631ZM123.915 130.631C123.915 129.303 124.308 128.005 125.046 126.901C125.784 125.796 126.833 124.936 128.06 124.427C129.287 123.919 130.637 123.786 131.94 124.045C133.242 124.304 134.439 124.944 135.378 125.883C136.317 126.822 136.956 128.019 137.215 129.321C137.475 130.624 137.342 131.974 136.833 133.201C136.325 134.428 135.464 135.477 134.36 136.215C133.256 136.952 131.958 137.346 130.63 137.346C128.849 137.344 127.142 136.636 125.884 135.377C124.625 134.118 123.917 132.412 123.915 130.631ZM130.635 110.262C128.374 110.257 126.128 110.632 123.991 111.369L122.446 109.568C118.872 105.4 114.473 100.27 109.771 94.7889L150.59 38.4107C150.9 37.9832 151.042 37.4562 150.989 36.9304C150.935 36.4047 150.69 35.9172 150.3 35.5611C149.909 35.2049 149.401 35.0052 148.873 35.0001C148.344 34.995 147.833 35.1848 147.435 35.5333L96.8527 79.7371C92.4641 74.6257 88.1915 69.655 84.4173 65.2696C84.0421 64.8506 83.5175 64.5955 82.9563 64.5591C82.395 64.5226 81.8419 64.7077 81.4156 65.0746C80.9894 65.4415 80.724 65.9609 80.6766 66.5214C80.6291 67.0818 80.8033 67.6384 81.1618 68.0718C92.8131 81.6081 109.195 100.714 119.184 112.364L121.72 115.322C122.02 115.671 122.424 115.915 122.872 116.017C123.321 116.12 123.791 116.076 124.212 115.891C126.237 115.005 128.424 114.551 130.634 114.557C134.215 114.556 137.694 115.751 140.52 117.951C143.345 120.152 145.355 123.233 146.231 126.706C147.107 130.178 146.799 133.844 145.355 137.121C143.912 140.399 141.415 143.101 138.262 144.799C135.108 146.496 131.479 147.093 127.948 146.494C124.417 145.895 121.187 144.134 118.77 141.491C116.353 138.848 114.888 135.474 114.606 131.904C114.324 128.334 115.242 124.771 117.215 121.782C117.475 121.39 117.6 120.923 117.569 120.453C117.538 119.983 117.354 119.536 117.044 119.182L104.692 105.025C104.361 104.645 103.907 104.394 103.41 104.315L90.1688 102.224L89.5835 101.383L89.5673 101.359L76.1363 82.0689V60.8864C77.5762 60.5752 78.8663 59.7808 79.7922 58.635C80.7181 57.4893 81.2242 56.0612 81.2262 54.5881V51.1136C81.224 49.6078 80.6951 48.1503 79.7312 46.9935C78.7672 45.8367 77.429 45.0536 75.9483 44.7799C75.4672 42.0442 74.0385 39.5652 71.9126 37.7775C69.7867 35.9897 67.0993 35.0074 64.3217 35.0027H51.9045C49.1269 35.0074 46.4395 35.9897 44.3136 37.7775C42.1878 39.5652 40.759 42.0442 40.2779 44.7799C38.7973 45.0536 37.459 45.8367 36.4951 46.9935C35.5311 48.1503 35.0022 49.6078 35 51.1136V54.5881C35.0021 56.0612 35.5081 57.4893 36.434 58.635C37.36 59.7808 38.6501 60.5752 40.0899 60.8864V125.116C38.6501 125.427 37.36 126.222 36.434 127.367C35.5081 128.513 35.0021 129.941 35 131.414V134.889C35.0025 136.394 35.5315 137.852 36.4954 139.008C37.4593 140.165 38.7974 140.948 40.2779 141.221C40.7588 143.957 42.1874 146.437 44.3133 148.224C46.4393 150.012 49.1267 150.995 51.9045 151H64.3217C67.0995 150.995 69.787 150.012 71.9129 148.224C74.0388 146.437 75.4675 143.957 75.9483 141.221C77.4288 140.948 78.7669 140.165 79.7308 139.008C80.6947 137.852 81.2238 136.394 81.2262 134.889V131.414C81.2242 129.941 80.7181 128.513 79.7922 127.367C78.8663 126.222 77.5762 125.427 76.1363 125.116V117.138L87.5309 105.824C87.8316 106.087 88.2 106.261 88.5942 106.325L101.969 108.438L112.777 120.824C110.627 124.738 109.822 129.249 110.487 133.665C111.152 138.08 113.25 142.155 116.457 145.261C119.664 148.368 123.803 150.335 128.237 150.86C132.672 151.384 137.155 150.437 140.999 148.164C144.842 145.891 147.832 142.418 149.509 138.28C151.185 134.141 151.456 129.566 150.278 125.259C149.1 120.952 146.54 117.151 142.991 114.441C139.442 111.732 135.1 110.263 130.635 110.262ZM136.007 51.2274L106.895 91.4357L99.6527 82.9969L136.007 51.2274ZM79.7097 94.7213L76.1363 97.8425V89.5883L79.7097 94.7213ZM44.3862 97.8929L71.8401 76.6804V89.7881L44.3862 111.001V97.8929ZM71.8401 71.251L44.3862 92.4636V79.3773L68.1238 61.0335H71.8401V71.251ZM61.0963 61.0335L44.3862 73.9458V61.0335H61.0963ZM44.3862 116.431L71.8401 95.2185V108.317L50.2849 124.971H44.3862V116.431ZM57.3124 124.971L71.8401 113.746V124.971H57.3124ZM51.9045 39.299H64.3217C65.9404 39.301 67.5153 39.8244 68.8132 40.7917C70.1111 41.759 71.0629 43.1187 71.5275 44.6692H44.6987C45.1633 43.1187 46.1151 41.759 47.413 40.7917C48.7109 39.8244 50.2859 39.301 51.9045 39.299ZM39.2962 54.5881V51.1136C39.2968 50.544 39.5233 49.998 39.926 49.5952C40.3287 49.1925 40.8748 48.966 41.4443 48.9654H74.7808C75.3504 48.966 75.8964 49.1925 76.2991 49.5952C76.7019 49.998 76.9284 50.544 76.9289 51.1136V54.5881C76.9284 55.1577 76.7019 55.7037 76.2991 56.1064C75.8964 56.5092 75.3504 56.7357 74.7808 56.7362H41.4443C40.8748 56.7357 40.3287 56.5092 39.926 56.1064C39.5233 55.7037 39.2968 55.1577 39.2962 54.5881ZM64.3206 146.704H51.9035C50.2848 146.702 48.7098 146.179 47.4119 145.212C46.114 144.244 45.1623 142.885 44.6976 141.334H71.5264C71.0618 142.885 70.1101 144.244 68.8122 145.212C67.5143 146.179 65.9393 146.702 64.3206 146.704ZM76.9289 131.415V134.89C76.9284 135.459 76.7019 136.005 76.2991 136.408C75.8964 136.811 75.3504 137.037 74.7808 137.038H41.4443C40.8748 137.037 40.3287 136.811 39.926 136.408C39.5233 136.005 39.2968 135.459 39.2962 134.89V131.415C39.2968 130.846 39.5233 130.3 39.926 129.897C40.3287 129.494 40.8748 129.268 41.4443 129.267H74.7808C75.3504 129.268 75.8964 129.494 76.2991 129.897C76.7019 130.3 76.9284 130.846 76.9289 131.415ZM76.1352 103.548L82.1778 98.2689L84.9833 102.299L76.1352 111.084V103.548ZM97.1652 93.4088C97.1652 94.1523 96.9447 94.8791 96.5317 95.4973C96.1186 96.1154 95.5315 96.5973 94.8446 96.8818C94.1577 97.1663 93.4018 97.2408 92.6726 97.0957C91.9434 96.9507 91.2736 96.5926 90.7479 96.0669C90.2221 95.5412 89.8641 94.8714 89.7191 94.1421C89.574 93.4129 89.6484 92.6571 89.933 91.9702C90.2175 91.2833 90.6993 90.6962 91.3175 90.2831C91.9357 89.87 92.6625 89.6496 93.406 89.6496C94.4027 89.6507 95.3582 90.0471 96.0629 90.7519C96.7677 91.4566 97.1641 92.4121 97.1652 93.4088Z" fill="#161616"/>
</g>
<path d="M273.8 133H208.2L241 61.9L273.8 133ZM214 129.3H268L241 70.7L214 129.3ZM340.923 63.4L340.823 67.1L293.823 129.3H340.923V133H289.223V129.3L336.123 67.1H290.323V63.4H340.923ZM414.947 63.4L414.847 67.1L367.847 129.3H414.947V133H363.247V129.3L410.147 67.1H364.347V63.4H414.947ZM434.97 63.4H438.67V106.4C438.67 110.8 439.77 114.867 441.97 118.6C444.17 122.333 447.137 125.3 450.87 127.5C454.604 129.7 458.67 130.8 463.07 130.8C467.47 130.8 471.537 129.7 475.27 127.5C479.004 125.3 481.97 122.333 484.17 118.6C486.37 114.867 487.47 110.8 487.47 106.4V63.4H491.17V106.4C491.17 111.467 489.904 116.167 487.37 120.5C484.837 124.767 481.404 128.167 477.07 130.7C472.804 133.233 468.137 134.5 463.07 134.5C458.004 134.5 453.304 133.233 448.97 130.7C444.704 128.167 441.304 124.767 438.77 120.5C436.237 116.167 434.97 111.467 434.97 106.4V63.4ZM552.194 65.7C556.194 67.5667 559.327 70.3333 561.594 74C563.927 77.6667 565.094 81.7333 565.094 86.2C565.094 91.4 563.494 96.0667 560.294 100.2C557.16 104.267 553.127 106.967 548.194 108.3L565.894 133H561.494L544.394 109L541.194 109.1H516.094V133H512.394V63.4H538.894C541.827 63.4 544.327 63.6 546.394 64C548.527 64.3333 550.46 64.9 552.194 65.7ZM542.194 105.4C545.66 105.4 548.86 104.533 551.794 102.8C554.727 101.067 557.06 98.7333 558.794 95.8C560.527 92.8667 561.394 89.6667 561.394 86.2C561.394 82.3333 560.36 78.8333 558.294 75.7C556.294 72.5667 553.494 70.2333 549.894 68.7C547.294 67.6333 543.627 67.1 538.894 67.1H516.094V105.4H542.194ZM626.217 65.7C630.217 67.5667 633.351 70.3333 635.617 74C637.951 77.6667 639.117 81.7333 639.117 86.2C639.117 91.4 637.517 96.0667 634.317 100.2C631.184 104.267 627.151 106.967 622.217 108.3L639.917 133H635.517L618.417 109L615.217 109.1H590.117V133H586.417V63.4H612.917C615.851 63.4 618.351 63.6 620.417 64C622.551 64.3333 624.484 64.9 626.217 65.7ZM616.217 105.4C619.684 105.4 622.884 104.533 625.817 102.8C628.751 101.067 631.084 98.7333 632.817 95.8C634.551 92.8667 635.417 89.6667 635.417 86.2C635.417 82.3333 634.384 78.8333 632.317 75.7C630.317 72.5667 627.517 70.2333 623.917 68.7C621.317 67.6333 617.651 67.1 612.917 67.1H590.117V105.4H616.217ZM685.141 61.9C690.341 61.9 695.141 63.2 699.541 65.8C703.941 68.3333 707.407 71.8 709.941 76.2C712.541 80.6 713.841 85.4 713.841 90.6V105.8C713.841 111 712.541 115.8 709.941 120.2C707.407 124.6 703.941 128.1 699.541 130.7C695.141 133.233 690.341 134.5 685.141 134.5C679.941 134.5 675.141 133.233 670.741 130.7C666.341 128.1 662.841 124.6 660.241 120.2C657.707 115.8 656.441 111 656.441 105.8V90.6C656.441 85.4 657.707 80.6 660.241 76.2C662.841 71.8 666.341 68.3333 670.741 65.8C675.141 63.2 679.941 61.9 685.141 61.9ZM660.141 105.8C660.141 110.333 661.241 114.533 663.441 118.4C665.707 122.2 668.741 125.233 672.541 127.5C676.407 129.7 680.607 130.8 685.141 130.8C689.674 130.8 693.841 129.7 697.641 127.5C701.507 125.233 704.541 122.2 706.741 118.4C709.007 114.533 710.141 110.333 710.141 105.8V90.6C710.141 86.0667 709.007 81.9 706.741 78.1C704.541 74.2333 701.507 71.2 697.641 69C693.841 66.7333 689.674 65.6 685.141 65.6C680.607 65.6 676.407 66.7333 672.541 69C668.741 71.2 665.707 74.2333 663.441 78.1C661.241 81.9 660.141 86.0667 660.141 90.6V105.8Z" fill="#FFDB6E"/>
<defs>
<linearGradient id="paint0_linear_52_6" x1="-14" y1="-9.10783e-08" x2="185" y2="185" gradientUnits="userSpaceOnUse">
<stop offset="0.385417" stop-color="#FFDB6E"/>
<stop offset="0.708333" stop-color="#FFBC5E"/>
</linearGradient>
<clipPath id="clip0_52_6">
<rect width="185" height="185" fill="white"/>
</clipPath>
</defs>
</svg>
