<svg width="651" height="185" viewBox="0 0 651 185" fill="none" xmlns="http://www.w3.org/2000/svg">
<g clip-path="url(#clip0_67_8)">
<path d="M0 92.5C0 41.4137 41.4137 0 92.5 0H135C162.614 0 185 22.3858 185 50V92.5C185 143.586 143.586 185 92.5 185C41.4137 185 0 143.586 0 92.5Z" fill="url(#paint0_linear_67_8)"/>
<path d="M141.641 130.631C141.641 128.453 140.995 126.324 139.785 124.514C138.575 122.703 136.855 121.292 134.843 120.458C132.831 119.625 130.617 119.407 128.481 119.832C126.345 120.256 124.383 121.305 122.843 122.845C121.303 124.385 120.255 126.347 119.83 128.483C119.405 130.619 119.623 132.833 120.456 134.845C121.29 136.857 122.701 138.577 124.512 139.787C126.323 140.997 128.452 141.642 130.63 141.642C133.549 141.639 136.348 140.478 138.412 138.414C140.476 136.35 141.638 133.551 141.641 130.631ZM123.915 130.631C123.915 129.303 124.308 128.005 125.046 126.901C125.784 125.796 126.833 124.936 128.06 124.427C129.287 123.919 130.637 123.786 131.94 124.045C133.242 124.304 134.439 124.944 135.378 125.883C136.317 126.822 136.956 128.019 137.215 129.321C137.475 130.624 137.342 131.974 136.833 133.201C136.325 134.428 135.464 135.477 134.36 136.215C133.256 136.952 131.958 137.346 130.63 137.346C128.849 137.344 127.142 136.636 125.884 135.377C124.625 134.118 123.917 132.412 123.915 130.631ZM130.635 110.262C128.374 110.257 126.128 110.632 123.991 111.369L122.446 109.568C118.872 105.4 114.473 100.27 109.771 94.7889L150.59 38.4107C150.9 37.9832 151.042 37.4562 150.989 36.9304C150.935 36.4047 150.69 35.9172 150.3 35.5611C149.909 35.2049 149.401 35.0052 148.873 35.0001C148.344 34.995 147.833 35.1848 147.435 35.5333L96.8527 79.7371C92.4641 74.6257 88.1915 69.655 84.4173 65.2696C84.0421 64.8506 83.5175 64.5955 82.9563 64.5591C82.395 64.5226 81.8419 64.7077 81.4156 65.0746C80.9894 65.4415 80.724 65.9609 80.6766 66.5214C80.6291 67.0818 80.8033 67.6384 81.1618 68.0718C92.8131 81.6081 109.195 100.714 119.184 112.364L121.72 115.322C122.02 115.671 122.424 115.915 122.872 116.017C123.321 116.12 123.791 116.076 124.212 115.891C126.237 115.005 128.424 114.551 130.634 114.557C134.215 114.556 137.694 115.751 140.52 117.951C143.345 120.152 145.355 123.233 146.231 126.706C147.107 130.178 146.799 133.844 145.355 137.121C143.912 140.399 141.415 143.101 138.262 144.799C135.108 146.496 131.479 147.093 127.948 146.494C124.417 145.895 121.187 144.134 118.77 141.491C116.353 138.848 114.888 135.474 114.606 131.904C114.324 128.334 115.242 124.771 117.215 121.782C117.475 121.39 117.6 120.923 117.569 120.453C117.538 119.983 117.354 119.536 117.044 119.182L104.692 105.025C104.361 104.645 103.907 104.394 103.41 104.315L90.1688 102.224L89.5835 101.383L89.5673 101.359L76.1363 82.0689V60.8864C77.5762 60.5752 78.8663 59.7808 79.7922 58.635C80.7181 57.4893 81.2242 56.0612 81.2262 54.5881V51.1136C81.224 49.6078 80.6951 48.1503 79.7312 46.9935C78.7672 45.8367 77.429 45.0536 75.9483 44.7799C75.4672 42.0442 74.0385 39.5652 71.9126 37.7775C69.7867 35.9897 67.0993 35.0074 64.3217 35.0027H51.9045C49.1269 35.0074 46.4395 35.9897 44.3136 37.7775C42.1878 39.5652 40.759 42.0442 40.2779 44.7799C38.7973 45.0536 37.459 45.8367 36.4951 46.9935C35.5311 48.1503 35.0022 49.6078 35 51.1136V54.5881C35.0021 56.0612 35.5081 57.4893 36.434 58.635C37.36 59.7808 38.6501 60.5752 40.0899 60.8864V125.116C38.6501 125.427 37.36 126.222 36.434 127.367C35.5081 128.513 35.0021 129.941 35 131.414V134.889C35.0025 136.394 35.5315 137.852 36.4954 139.008C37.4593 140.165 38.7974 140.948 40.2779 141.221C40.7588 143.957 42.1874 146.437 44.3133 148.224C46.4393 150.012 49.1267 150.995 51.9045 151H64.3217C67.0995 150.995 69.787 150.012 71.9129 148.224C74.0388 146.437 75.4675 143.957 75.9483 141.221C77.4288 140.948 78.7669 140.165 79.7308 139.008C80.6947 137.852 81.2238 136.394 81.2262 134.889V131.414C81.2242 129.941 80.7181 128.513 79.7922 127.367C78.8663 126.222 77.5762 125.427 76.1363 125.116V117.138L87.5309 105.824C87.8316 106.087 88.2 106.261 88.5942 106.325L101.969 108.438L112.777 120.824C110.627 124.738 109.822 129.249 110.487 133.665C111.152 138.08 113.25 142.155 116.457 145.261C119.664 148.368 123.803 150.335 128.237 150.86C132.672 151.384 137.155 150.437 140.999 148.164C144.842 145.891 147.832 142.418 149.509 138.28C151.185 134.141 151.456 129.566 150.278 125.259C149.1 120.952 146.54 117.151 142.991 114.441C139.442 111.732 135.1 110.263 130.635 110.262ZM136.007 51.2274L106.895 91.4357L99.6527 82.9969L136.007 51.2274ZM79.7097 94.7213L76.1363 97.8425V89.5883L79.7097 94.7213ZM44.3862 97.8929L71.8401 76.6804V89.7881L44.3862 111.001V97.8929ZM71.8401 71.251L44.3862 92.4636V79.3773L68.1238 61.0335H71.8401V71.251ZM61.0963 61.0335L44.3862 73.9458V61.0335H61.0963ZM44.3862 116.431L71.8401 95.2185V108.317L50.2849 124.971H44.3862V116.431ZM57.3124 124.971L71.8401 113.746V124.971H57.3124ZM51.9045 39.299H64.3217C65.9404 39.301 67.5153 39.8244 68.8132 40.7917C70.1111 41.759 71.0629 43.1187 71.5275 44.6692H44.6987C45.1633 43.1187 46.1151 41.759 47.413 40.7917C48.7109 39.8244 50.2859 39.301 51.9045 39.299ZM39.2962 54.5881V51.1136C39.2968 50.544 39.5233 49.998 39.926 49.5952C40.3287 49.1925 40.8748 48.966 41.4443 48.9654H74.7808C75.3504 48.966 75.8964 49.1925 76.2991 49.5952C76.7019 49.998 76.9284 50.544 76.9289 51.1136V54.5881C76.9284 55.1577 76.7019 55.7037 76.2991 56.1064C75.8964 56.5092 75.3504 56.7357 74.7808 56.7362H41.4443C40.8748 56.7357 40.3287 56.5092 39.926 56.1064C39.5233 55.7037 39.2968 55.1577 39.2962 54.5881ZM64.3206 146.704H51.9035C50.2848 146.702 48.7098 146.179 47.4119 145.212C46.114 144.244 45.1623 142.885 44.6976 141.334H71.5264C71.0618 142.885 70.1101 144.244 68.8122 145.212C67.5143 146.179 65.9393 146.702 64.3206 146.704ZM76.9289 131.415V134.89C76.9284 135.459 76.7019 136.005 76.2991 136.408C75.8964 136.811 75.3504 137.037 74.7808 137.038H41.4443C40.8748 137.037 40.3287 136.811 39.926 136.408C39.5233 136.005 39.2968 135.459 39.2962 134.89V131.415C39.2968 130.846 39.5233 130.3 39.926 129.897C40.3287 129.494 40.8748 129.268 41.4443 129.267H74.7808C75.3504 129.268 75.8964 129.494 76.2991 129.897C76.7019 130.3 76.9284 130.846 76.9289 131.415ZM76.1352 103.548L82.1778 98.2689L84.9833 102.299L76.1352 111.084V103.548ZM97.1652 93.4088C97.1652 94.1523 96.9447 94.8791 96.5317 95.4973C96.1186 96.1154 95.5315 96.5973 94.8446 96.8818C94.1577 97.1663 93.4018 97.2408 92.6726 97.0957C91.9434 96.9507 91.2736 96.5926 90.7479 96.0669C90.2221 95.5412 89.8641 94.8714 89.7191 94.1421C89.574 93.4129 89.6484 92.6571 89.933 91.9702C90.2175 91.2833 90.6993 90.6962 91.3175 90.2831C91.9357 89.87 92.6625 89.6496 93.406 89.6496C94.4027 89.6507 95.3582 90.0471 96.0629 90.7519C96.7677 91.4566 97.1641 92.4121 97.1652 93.4088Z" fill="#161616"/>
</g>
<path d="M256.7 13.4C261.1 13.4 264.6 14.0667 267.2 15.4C270.333 17 272.733 19.2 274.4 22C276.133 24.8 277 27.9334 277 31.4C277 34.6667 276.133 37.7 274.4 40.5C272.667 43.2334 270.3 45.4 267.3 47C270.9 48.2667 273.933 50.4667 276.4 53.6C278.867 56.7334 280.1 60.2667 280.1 64.2C280.1 67.6667 279.2 70.8667 277.4 73.8C275.667 76.6667 273.333 78.9334 270.4 80.6C268.933 81.4 267.3 82 265.5 82.4C263.7 82.8 261.3 83 258.3 83H227.5V13.4H256.7Z" fill="#FFDB6E"/>
<path d="M323.923 13.4H327.823L356.423 83H352.423L343.023 60H308.723L299.223 83H295.323L323.923 13.4ZM310.223 56.4H341.523L325.823 18.2L310.223 56.4Z" fill="#FFDB6E"/>
<path d="M414.947 15.7C418.947 17.5667 422.08 20.3334 424.347 24C426.68 27.6667 427.847 31.7334 427.847 36.2C427.847 41.4 426.247 46.0667 423.047 50.2C419.914 54.2667 415.88 56.9667 410.947 58.3L428.647 83H424.247L407.147 59L403.947 59.1H378.847V83H375.147V13.4H401.647C404.58 13.4 407.08 13.6 409.147 14C411.28 14.3334 413.214 14.9 414.947 15.7ZM404.947 55.4C408.414 55.4 411.614 54.5334 414.547 52.8C417.48 51.0667 419.814 48.7334 421.547 45.8C423.28 42.8667 424.147 39.6667 424.147 36.2C424.147 32.3334 423.114 28.8334 421.047 25.7C419.047 22.5667 416.247 20.2334 412.647 18.7C410.047 17.6334 406.38 17.1 401.647 17.1H378.847V55.4H404.947Z" fill="#FFDB6E"/>
<path d="M487.87 15.4C491.004 17 493.404 19.2 495.07 22C496.804 24.8 497.67 27.9334 497.67 31.4C497.67 34.6667 496.804 37.7 495.07 40.5C493.404 43.2334 491.07 45.4 488.07 47C491.604 48.2 494.537 50.4 496.87 53.6C499.204 56.8 500.37 60.3334 500.37 64.2C500.37 67.6667 499.504 70.8667 497.77 73.8C496.037 76.7334 493.737 79 490.87 80.6C489.404 81.4 487.77 82 485.97 82.4C484.17 82.8 481.77 83 478.77 83H449.57V13.4H477.37C481.77 13.4 485.27 14.0667 487.87 15.4ZM486.27 44.1C488.67 42.9 490.57 41.1667 491.97 38.9C493.37 36.6334 494.07 34.1334 494.07 31.4C494.07 28.3334 493.27 25.6667 491.67 23.4C490.07 21.0667 488.037 19.3667 485.57 18.3C483.704 17.5 480.57 17.1 476.17 17.1H453.17V45.7H477.97C481.437 45.7 484.204 45.1667 486.27 44.1ZM488.67 77.8C491.137 76.5334 493.104 74.7 494.57 72.3C496.037 69.8334 496.77 67.1667 496.77 64.3C496.77 61.3 496.004 58.6 494.47 56.2C492.937 53.7334 490.87 51.9 488.27 50.7C486.27 49.7667 483.57 49.3 480.17 49.3H453.17V79.4H478.87C481.404 79.4 483.404 79.2667 484.87 79C486.337 78.7334 487.604 78.3334 488.67 77.8Z" fill="#FFDB6E"/>
<path d="M523.894 13.4H572.894V17.1H527.594V45.3H566.994V49H527.594V79.3H572.894V83H523.894V13.4Z" fill="#FFDB6E"/>
<path d="M637.017 15.7C641.017 17.5667 644.151 20.3334 646.417 24C648.751 27.6667 649.917 31.7334 649.917 36.2C649.917 41.4 648.317 46.0667 645.117 50.2C641.984 54.2667 637.951 56.9667 633.017 58.3L650.717 83H646.317L629.217 59L626.017 59.1H600.917V83H597.217V13.4H623.717C626.65 13.4 629.15 13.6 631.217 14C633.35 14.3334 635.284 14.9 637.017 15.7ZM627.017 55.4C630.484 55.4 633.684 54.5334 636.617 52.8C639.551 51.0667 641.884 48.7334 643.617 45.8C645.351 42.8667 646.217 39.6667 646.217 36.2C646.217 32.3334 645.184 28.8334 643.117 25.7C641.117 22.5667 638.317 20.2334 634.717 18.7C632.117 17.6334 628.45 17.1 623.717 17.1H600.917V55.4H627.017Z" fill="#FFDB6E"/>
<path d="M225 183V113.4H228.7V146.3H274.9V113.4H278.6V183H274.9V150H228.7V183H225Z" fill="#FFDB6E"/>
<path d="M348.423 113.4V117.1H327.623V179.3H348.423V183H303.323V179.3H324.023V117.1H303.323V113.4H348.423Z" fill="#FFDB6E"/>
<path d="M427.947 113.4V117.1H401.647V183H398.047V117.1H371.747V113.4H427.947Z" fill="#FFDB6E"/>
<line x1="205.5" y1="-4.18618e-10" x2="205.5" y2="185" stroke="#FFDB6E"/>
<defs>
<linearGradient id="paint0_linear_67_8" x1="-14" y1="-9.10783e-08" x2="185" y2="185" gradientUnits="userSpaceOnUse">
<stop offset="0.385417" stop-color="#FFDB6E"/>
<stop offset="0.708333" stop-color="#FFBC5E"/>
</linearGradient>
<clipPath id="clip0_67_8">
<rect width="185" height="185" fill="white"/>
</clipPath>
</defs>
</svg>
