<svg width="703" height="185" viewBox="0 0 703 185" fill="none" xmlns="http://www.w3.org/2000/svg">
<g clip-path="url(#clip0_54_114)">
<path d="M0 92.5C0 41.4137 41.4137 0 92.5 0H135C162.614 0 185 22.3858 185 50V92.5C185 143.586 143.586 185 92.5 185C41.4137 185 0 143.586 0 92.5Z" fill="url(#paint0_linear_54_114)"/>
<path d="M141.641 130.631C141.641 128.453 140.995 126.324 139.785 124.514C138.575 122.703 136.855 121.292 134.843 120.458C132.831 119.625 130.617 119.407 128.481 119.832C126.345 120.256 124.383 121.305 122.843 122.845C121.303 124.385 120.255 126.347 119.83 128.483C119.405 130.619 119.623 132.833 120.456 134.845C121.29 136.857 122.701 138.577 124.512 139.787C126.323 140.997 128.452 141.642 130.63 141.642C133.549 141.639 136.348 140.478 138.412 138.414C140.476 136.35 141.638 133.551 141.641 130.631ZM123.915 130.631C123.915 129.303 124.308 128.005 125.046 126.901C125.784 125.796 126.833 124.936 128.06 124.427C129.287 123.919 130.637 123.786 131.94 124.045C133.242 124.304 134.439 124.944 135.378 125.883C136.317 126.822 136.956 128.019 137.215 129.321C137.475 130.624 137.342 131.974 136.833 133.201C136.325 134.428 135.464 135.477 134.36 136.215C133.256 136.952 131.958 137.346 130.63 137.346C128.849 137.344 127.142 136.636 125.884 135.377C124.625 134.118 123.917 132.412 123.915 130.631ZM130.635 110.262C128.374 110.257 126.128 110.632 123.991 111.369L122.446 109.568C118.872 105.4 114.473 100.27 109.771 94.7889L150.59 38.4107C150.9 37.9832 151.042 37.4562 150.989 36.9304C150.935 36.4047 150.69 35.9172 150.3 35.5611C149.909 35.2049 149.401 35.0052 148.873 35.0001C148.344 34.995 147.833 35.1848 147.435 35.5333L96.8527 79.7371C92.4641 74.6257 88.1915 69.655 84.4173 65.2696C84.0421 64.8506 83.5175 64.5955 82.9563 64.5591C82.395 64.5226 81.8419 64.7077 81.4156 65.0746C80.9894 65.4415 80.724 65.9609 80.6766 66.5214C80.6291 67.0818 80.8033 67.6384 81.1618 68.0718C92.8131 81.6081 109.195 100.714 119.184 112.364L121.72 115.322C122.02 115.671 122.424 115.915 122.872 116.017C123.321 116.12 123.791 116.076 124.212 115.891C126.237 115.005 128.424 114.551 130.634 114.557C134.215 114.556 137.694 115.751 140.52 117.951C143.345 120.152 145.355 123.233 146.231 126.706C147.107 130.178 146.799 133.844 145.355 137.121C143.912 140.399 141.415 143.101 138.262 144.799C135.108 146.496 131.479 147.093 127.948 146.494C124.417 145.895 121.187 144.134 118.77 141.491C116.353 138.848 114.888 135.474 114.606 131.904C114.324 128.334 115.242 124.771 117.215 121.782C117.475 121.39 117.6 120.923 117.569 120.453C117.538 119.983 117.354 119.536 117.044 119.182L104.692 105.025C104.361 104.645 103.907 104.394 103.41 104.315L90.1688 102.224L89.5835 101.383L89.5673 101.359L76.1363 82.0689V60.8864C77.5762 60.5752 78.8663 59.7808 79.7922 58.635C80.7181 57.4893 81.2242 56.0612 81.2262 54.5881V51.1136C81.224 49.6078 80.6951 48.1503 79.7312 46.9935C78.7672 45.8367 77.429 45.0536 75.9483 44.7799C75.4672 42.0442 74.0385 39.5652 71.9126 37.7775C69.7867 35.9897 67.0993 35.0074 64.3217 35.0027H51.9045C49.1269 35.0074 46.4395 35.9897 44.3136 37.7775C42.1878 39.5652 40.759 42.0442 40.2779 44.7799C38.7973 45.0536 37.459 45.8367 36.4951 46.9935C35.5311 48.1503 35.0022 49.6078 35 51.1136V54.5881C35.0021 56.0612 35.5081 57.4893 36.434 58.635C37.36 59.7808 38.6501 60.5752 40.0899 60.8864V125.116C38.6501 125.427 37.36 126.222 36.434 127.367C35.5081 128.513 35.0021 129.941 35 131.414V134.889C35.0025 136.394 35.5315 137.852 36.4954 139.008C37.4593 140.165 38.7974 140.948 40.2779 141.221C40.7588 143.957 42.1874 146.437 44.3133 148.224C46.4393 150.012 49.1267 150.995 51.9045 151H64.3217C67.0995 150.995 69.787 150.012 71.9129 148.224C74.0388 146.437 75.4675 143.957 75.9483 141.221C77.4288 140.948 78.7669 140.165 79.7308 139.008C80.6947 137.852 81.2238 136.394 81.2262 134.889V131.414C81.2242 129.941 80.7181 128.513 79.7922 127.367C78.8663 126.222 77.5762 125.427 76.1363 125.116V117.138L87.5309 105.824C87.8316 106.087 88.2 106.261 88.5942 106.325L101.969 108.438L112.777 120.824C110.627 124.738 109.822 129.249 110.487 133.665C111.152 138.08 113.25 142.155 116.457 145.261C119.664 148.368 123.803 150.335 128.237 150.86C132.672 151.384 137.155 150.437 140.999 148.164C144.842 145.891 147.832 142.418 149.509 138.28C151.185 134.141 151.456 129.566 150.278 125.259C149.1 120.952 146.54 117.151 142.991 114.441C139.442 111.732 135.1 110.263 130.635 110.262ZM136.007 51.2274L106.895 91.4357L99.6527 82.9969L136.007 51.2274ZM79.7097 94.7213L76.1363 97.8425V89.5883L79.7097 94.7213ZM44.3862 97.8929L71.8401 76.6804V89.7881L44.3862 111.001V97.8929ZM71.8401 71.251L44.3862 92.4636V79.3773L68.1238 61.0335H71.8401V71.251ZM61.0963 61.0335L44.3862 73.9458V61.0335H61.0963ZM44.3862 116.431L71.8401 95.2185V108.317L50.2849 124.971H44.3862V116.431ZM57.3124 124.971L71.8401 113.746V124.971H57.3124ZM51.9045 39.299H64.3217C65.9404 39.301 67.5153 39.8244 68.8132 40.7917C70.1111 41.759 71.0629 43.1187 71.5275 44.6692H44.6987C45.1633 43.1187 46.1151 41.759 47.413 40.7917C48.7109 39.8244 50.2859 39.301 51.9045 39.299ZM39.2962 54.5881V51.1136C39.2968 50.544 39.5233 49.998 39.926 49.5952C40.3287 49.1925 40.8748 48.966 41.4443 48.9654H74.7808C75.3504 48.966 75.8964 49.1925 76.2991 49.5952C76.7019 49.998 76.9284 50.544 76.9289 51.1136V54.5881C76.9284 55.1577 76.7019 55.7037 76.2991 56.1064C75.8964 56.5092 75.3504 56.7357 74.7808 56.7362H41.4443C40.8748 56.7357 40.3287 56.5092 39.926 56.1064C39.5233 55.7037 39.2968 55.1577 39.2962 54.5881ZM64.3206 146.704H51.9035C50.2848 146.702 48.7098 146.179 47.4119 145.212C46.114 144.244 45.1623 142.885 44.6976 141.334H71.5264C71.0618 142.885 70.1101 144.244 68.8122 145.212C67.5143 146.179 65.9393 146.702 64.3206 146.704ZM76.9289 131.415V134.89C76.9284 135.459 76.7019 136.005 76.2991 136.408C75.8964 136.811 75.3504 137.037 74.7808 137.038H41.4443C40.8748 137.037 40.3287 136.811 39.926 136.408C39.5233 136.005 39.2968 135.459 39.2962 134.89V131.415C39.2968 130.846 39.5233 130.3 39.926 129.897C40.3287 129.494 40.8748 129.268 41.4443 129.267H74.7808C75.3504 129.268 75.8964 129.494 76.2991 129.897C76.7019 130.3 76.9284 130.846 76.9289 131.415ZM76.1352 103.548L82.1778 98.2689L84.9833 102.299L76.1352 111.084V103.548ZM97.1652 93.4088C97.1652 94.1523 96.9447 94.8791 96.5317 95.4973C96.1186 96.1154 95.5315 96.5973 94.8446 96.8818C94.1577 97.1663 93.4018 97.2408 92.6726 97.0957C91.9434 96.9507 91.2736 96.5926 90.7479 96.0669C90.2221 95.5412 89.8641 94.8714 89.7191 94.1421C89.574 93.4129 89.6484 92.6571 89.933 91.9702C90.2175 91.2833 90.6993 90.6962 91.3175 90.2831C91.9357 89.87 92.6625 89.6496 93.406 89.6496C94.4027 89.6507 95.3582 90.0471 96.0629 90.7519C96.7677 91.4566 97.1641 92.4121 97.1652 93.4088Z" fill="#161616"/>
</g>
<path d="M258.4 51.9C258.467 60.6333 255.967 67.4667 250.9 72.4C245.833 77.2667 238.867 79.7 230 79.7C224.733 79.7 219.867 78.5 215.4 76.1C211 73.7 207.5 70.3 204.9 65.9C202.3 61.5 201 56.4333 201 50.7V36.1C201 30.4333 202.233 25.4 204.7 21C207.233 16.6 210.667 13.2 215 10.8C219.4 8.33333 224.3 7.1 229.7 7.1C238.567 7.1 245.5 9.53333 250.5 14.4C255.567 19.2 258.133 26 258.2 34.8H240.2C240.133 31.4 239.2 28.7667 237.4 26.9C235.667 25.0333 233.1 24.1 229.7 24.1C226.633 24.1 224.1 25.0667 222.1 27C220.1 28.9333 219.1 31.6667 219.1 35.2V51.5C219.1 55.0333 220.133 57.8 222.2 59.8C224.333 61.7333 226.933 62.7 230 62.7C237 62.7 240.5 59.1 240.5 51.9H258.4Z" fill="#FFDB6E"/>
<path d="M282.223 78.2V8.6H285.923V74.5H334.423V78.2H282.223Z" fill="#FFDB6E"/>
<path d="M375.847 8.6H379.747L408.347 78.2H404.347L394.947 55.2H360.647L351.147 78.2H347.247L375.847 8.6ZM362.147 51.6H393.447L377.747 13.4L362.147 51.6Z" fill="#FFDB6E"/>
<path d="M453.27 44.9C447.604 43.7667 442.97 42.5333 439.37 41.2C435.837 39.8 433.037 37.9333 430.97 35.6C428.97 33.2 427.97 30.1333 427.97 26.4C427.97 22.5333 428.97 19.1333 430.97 16.2C433.037 13.2667 435.904 11 439.57 9.4C443.304 7.8 447.604 7 452.47 7C457.137 7 461.404 8 465.27 10C469.204 11.9333 472.304 14.6667 474.57 18.2C476.837 21.7333 477.97 25.7667 477.97 30.3H474.27C474.27 26.3667 473.304 22.9 471.37 19.9C469.437 16.9 466.804 14.6 463.47 13C460.137 11.3333 456.437 10.5 452.37 10.5C448.77 10.5 445.404 11.0667 442.27 12.2C439.137 13.3333 436.57 15.0667 434.57 17.4C432.637 19.7333 431.67 22.6667 431.67 26.2C431.67 29.4 432.604 31.9667 434.47 33.9C436.337 35.7667 438.77 37.2 441.77 38.2C444.77 39.2 448.97 40.2667 454.37 41.4C459.837 42.5333 464.07 43.6333 467.07 44.7C470.137 45.7 472.704 47.4 474.77 49.8C476.904 52.2 477.97 55.5667 477.97 59.9C477.97 64.2333 476.804 67.9 474.47 70.9C472.204 73.8333 469.17 76.0333 465.37 77.5C461.57 78.9667 457.437 79.7 452.97 79.7C447.437 79.7 442.57 78.6667 438.37 76.6C434.17 74.5333 430.937 71.6333 428.67 67.9C426.47 64.1 425.37 59.7667 425.37 54.9H429.07C429.07 59.1667 430.004 62.9 431.87 66.1C433.804 69.3 436.57 71.8 440.17 73.6C443.77 75.3333 448.037 76.2 452.97 76.2C459.104 76.2 464.17 74.7333 468.17 71.8C472.237 68.8667 474.27 64.8667 474.27 59.8C474.27 56.3333 473.404 53.6667 471.67 51.8C469.937 49.9333 467.737 48.6 465.07 47.8C462.47 46.9333 458.537 45.9667 453.27 44.9Z" fill="#FFDB6E"/>
<path d="M527.294 44.9C521.627 43.7667 516.994 42.5333 513.394 41.2C509.86 39.8 507.06 37.9333 504.994 35.6C502.994 33.2 501.994 30.1333 501.994 26.4C501.994 22.5333 502.994 19.1333 504.994 16.2C507.06 13.2667 509.927 11 513.594 9.4C517.327 7.8 521.627 7 526.494 7C531.16 7 535.427 8 539.294 10C543.227 11.9333 546.327 14.6667 548.594 18.2C550.86 21.7333 551.994 25.7667 551.994 30.3H548.294C548.294 26.3667 547.327 22.9 545.394 19.9C543.46 16.9 540.827 14.6 537.494 13C534.16 11.3333 530.46 10.5 526.394 10.5C522.794 10.5 519.427 11.0667 516.294 12.2C513.16 13.3333 510.594 15.0667 508.594 17.4C506.66 19.7333 505.694 22.6667 505.694 26.2C505.694 29.4 506.627 31.9667 508.494 33.9C510.36 35.7667 512.794 37.2 515.794 38.2C518.794 39.2 522.994 40.2667 528.394 41.4C533.86 42.5333 538.094 43.6333 541.094 44.7C544.16 45.7 546.727 47.4 548.794 49.8C550.927 52.2 551.994 55.5667 551.994 59.9C551.994 64.2333 550.827 67.9 548.494 70.9C546.227 73.8333 543.194 76.0333 539.394 77.5C535.594 78.9667 531.46 79.7 526.994 79.7C521.46 79.7 516.594 78.6667 512.394 76.6C508.194 74.5333 504.96 71.6333 502.694 67.9C500.494 64.1 499.394 59.7667 499.394 54.9H503.094C503.094 59.1667 504.027 62.9 505.894 66.1C507.827 69.3 510.594 71.8 514.194 73.6C517.794 75.3333 522.06 76.2 526.994 76.2C533.127 76.2 538.194 74.7333 542.194 71.8C546.26 68.8667 548.294 64.8667 548.294 59.8C548.294 56.3333 547.427 53.6667 545.694 51.8C543.96 49.9333 541.76 48.6 539.094 47.8C536.494 46.9333 532.56 45.9667 527.294 44.9Z" fill="#FFDB6E"/>
<path d="M622.417 8.6V12.3H601.617V74.5H622.417V78.2H577.317V74.5H598.017V12.3H577.317V8.6H622.417Z" fill="#FFDB6E"/>
<path d="M649.941 51.6C649.941 56 651.041 60.0667 653.241 63.8C655.507 67.5333 658.507 70.5 662.241 72.7C666.041 74.9 670.141 76 674.541 76C679.074 76 683.174 75.1 686.841 73.3C690.507 71.5 693.374 69 695.441 65.8C697.574 62.6 698.674 59 698.741 55H702.341C702.341 59.6 701.107 63.8 698.641 67.6C696.241 71.3333 692.907 74.3 688.641 76.5C684.441 78.6333 679.741 79.7 674.541 79.7C669.474 79.7 664.774 78.4333 660.441 75.9C656.107 73.3667 652.674 69.9667 650.141 65.7C647.607 61.3667 646.341 56.6667 646.341 51.6V35.2C646.341 30.1333 647.574 25.4667 650.041 21.2C652.574 16.8667 655.974 13.4333 660.241 10.9C664.574 8.36667 669.274 7.1 674.341 7.1C679.474 7.1 684.141 8.2 688.341 10.4C692.607 12.5333 695.974 15.5 698.441 19.3C700.907 23.0333 702.141 27.2 702.141 31.8H698.541C698.474 27.8 697.374 24.2 695.241 21C693.107 17.8 690.207 15.3 686.541 13.5C682.941 11.7 678.874 10.8 674.341 10.8C669.941 10.8 665.874 11.9 662.141 14.1C658.407 16.3 655.441 19.2667 653.241 23C651.041 26.7333 649.941 30.8 649.941 35.2V51.6Z" fill="#FFDB6E"/>
<path d="M258.4 151.9C258.467 160.633 255.967 167.467 250.9 172.4C245.833 177.267 238.867 179.7 230 179.7C224.733 179.7 219.867 178.5 215.4 176.1C211 173.7 207.5 170.3 204.9 165.9C202.3 161.5 201 156.433 201 150.7V136.1C201 130.433 202.233 125.4 204.7 121C207.233 116.6 210.667 113.2 215 110.8C219.4 108.333 224.3 107.1 229.7 107.1C238.567 107.1 245.5 109.533 250.5 114.4C255.567 119.2 258.133 126 258.2 134.8H240.2C240.133 131.4 239.2 128.767 237.4 126.9C235.667 125.033 233.1 124.1 229.7 124.1C226.633 124.1 224.1 125.067 222.1 127C220.1 128.933 219.1 131.667 219.1 135.2V151.5C219.1 155.033 220.133 157.8 222.2 159.8C224.333 161.733 226.933 162.7 230 162.7C237 162.7 240.5 159.1 240.5 151.9H258.4Z" fill="#FFDB6E"/>
<path d="M275.623 108.6H279.323V151.6C279.323 156 280.423 160.067 282.623 163.8C284.823 167.533 287.79 170.5 291.523 172.7C295.257 174.9 299.323 176 303.723 176C308.123 176 312.19 174.9 315.923 172.7C319.657 170.5 322.623 167.533 324.823 163.8C327.023 160.067 328.123 156 328.123 151.6V108.6H331.823V151.6C331.823 156.667 330.557 161.367 328.023 165.7C325.49 169.967 322.057 173.367 317.723 175.9C313.457 178.433 308.79 179.7 303.723 179.7C298.657 179.7 293.957 178.433 289.623 175.9C285.357 173.367 281.957 169.967 279.423 165.7C276.89 161.367 275.623 156.667 275.623 151.6V108.6Z" fill="#FFDB6E"/>
<path d="M405.847 108.6V112.3H379.547V178.2H375.947V112.3H349.647V108.6H405.847Z" fill="#FFDB6E"/>
<path d="M453.27 144.9C447.604 143.767 442.97 142.533 439.37 141.2C435.837 139.8 433.037 137.933 430.97 135.6C428.97 133.2 427.97 130.133 427.97 126.4C427.97 122.533 428.97 119.133 430.97 116.2C433.037 113.267 435.904 111 439.57 109.4C443.304 107.8 447.604 107 452.47 107C457.137 107 461.404 108 465.27 110C469.204 111.933 472.304 114.667 474.57 118.2C476.837 121.733 477.97 125.767 477.97 130.3H474.27C474.27 126.367 473.304 122.9 471.37 119.9C469.437 116.9 466.804 114.6 463.47 113C460.137 111.333 456.437 110.5 452.37 110.5C448.77 110.5 445.404 111.067 442.27 112.2C439.137 113.333 436.57 115.067 434.57 117.4C432.637 119.733 431.67 122.667 431.67 126.2C431.67 129.4 432.604 131.967 434.47 133.9C436.337 135.767 438.77 137.2 441.77 138.2C444.77 139.2 448.97 140.267 454.37 141.4C459.837 142.533 464.07 143.633 467.07 144.7C470.137 145.7 472.704 147.4 474.77 149.8C476.904 152.2 477.97 155.567 477.97 159.9C477.97 164.233 476.804 167.9 474.47 170.9C472.204 173.833 469.17 176.033 465.37 177.5C461.57 178.967 457.437 179.7 452.97 179.7C447.437 179.7 442.57 178.667 438.37 176.6C434.17 174.533 430.937 171.633 428.67 167.9C426.47 164.1 425.37 159.767 425.37 154.9H429.07C429.07 159.167 430.004 162.9 431.87 166.1C433.804 169.3 436.57 171.8 440.17 173.6C443.77 175.333 448.037 176.2 452.97 176.2C459.104 176.2 464.17 174.733 468.17 171.8C472.237 168.867 474.27 164.867 474.27 159.8C474.27 156.333 473.404 153.667 471.67 151.8C469.937 149.933 467.737 148.6 465.07 147.8C462.47 146.933 458.537 145.967 453.27 144.9Z" fill="#FFDB6E"/>
<defs>
<linearGradient id="paint0_linear_54_114" x1="-14" y1="-9.10783e-08" x2="185" y2="185" gradientUnits="userSpaceOnUse">
<stop offset="0.385417" stop-color="#FFDB6E"/>
<stop offset="0.708333" stop-color="#FFBC5E"/>
</linearGradient>
<clipPath id="clip0_54_114">
<rect width="185" height="185" fill="white"/>
</clipPath>
</defs>
</svg>
