<svg width="707" height="185" viewBox="0 0 707 185" fill="none" xmlns="http://www.w3.org/2000/svg">
<g clip-path="url(#clip0_56_719)">
<path d="M0 92.5C0 41.4137 41.4137 0 92.5 0H135C162.614 0 185 22.3858 185 50V92.5C185 143.586 143.586 185 92.5 185C41.4137 185 0 143.586 0 92.5Z" fill="url(#paint0_linear_56_719)"/>
<path d="M141.641 130.631C141.641 128.453 140.995 126.324 139.785 124.514C138.575 122.703 136.855 121.292 134.843 120.458C132.831 119.625 130.617 119.407 128.481 119.832C126.345 120.256 124.383 121.305 122.843 122.845C121.303 124.385 120.255 126.347 119.83 128.483C119.405 130.619 119.623 132.833 120.456 134.845C121.29 136.857 122.701 138.577 124.512 139.787C126.323 140.997 128.452 141.642 130.63 141.642C133.549 141.639 136.348 140.478 138.412 138.414C140.476 136.35 141.638 133.551 141.641 130.631ZM123.915 130.631C123.915 129.303 124.308 128.005 125.046 126.901C125.784 125.796 126.833 124.936 128.06 124.427C129.287 123.919 130.637 123.786 131.94 124.045C133.242 124.304 134.439 124.944 135.378 125.883C136.317 126.822 136.956 128.019 137.215 129.321C137.475 130.624 137.342 131.974 136.833 133.201C136.325 134.428 135.464 135.477 134.36 136.215C133.256 136.952 131.958 137.346 130.63 137.346C128.849 137.344 127.142 136.636 125.884 135.377C124.625 134.118 123.917 132.412 123.915 130.631ZM130.635 110.262C128.374 110.257 126.128 110.632 123.991 111.369L122.446 109.568C118.872 105.4 114.473 100.27 109.771 94.7889L150.59 38.4107C150.9 37.9832 151.042 37.4562 150.989 36.9304C150.935 36.4047 150.69 35.9172 150.3 35.5611C149.909 35.2049 149.401 35.0052 148.873 35.0001C148.344 34.995 147.833 35.1848 147.435 35.5333L96.8527 79.7371C92.4641 74.6257 88.1915 69.655 84.4173 65.2696C84.0421 64.8506 83.5175 64.5955 82.9563 64.5591C82.395 64.5226 81.8419 64.7077 81.4156 65.0746C80.9894 65.4415 80.724 65.9609 80.6766 66.5214C80.6291 67.0818 80.8033 67.6384 81.1618 68.0718C92.8131 81.6081 109.195 100.714 119.184 112.364L121.72 115.322C122.02 115.671 122.424 115.915 122.872 116.017C123.321 116.12 123.791 116.076 124.212 115.891C126.237 115.005 128.424 114.551 130.634 114.557C134.215 114.556 137.694 115.751 140.52 117.951C143.345 120.152 145.355 123.233 146.231 126.706C147.107 130.178 146.799 133.844 145.355 137.121C143.912 140.399 141.415 143.101 138.262 144.799C135.108 146.496 131.479 147.093 127.948 146.494C124.417 145.895 121.187 144.134 118.77 141.491C116.353 138.848 114.888 135.474 114.606 131.904C114.324 128.334 115.242 124.771 117.215 121.782C117.475 121.39 117.6 120.923 117.569 120.453C117.538 119.983 117.354 119.536 117.044 119.182L104.692 105.025C104.361 104.645 103.907 104.394 103.41 104.315L90.1688 102.224L89.5835 101.383L89.5673 101.359L76.1363 82.0689V60.8864C77.5762 60.5752 78.8663 59.7808 79.7922 58.635C80.7181 57.4893 81.2242 56.0612 81.2262 54.5881V51.1136C81.224 49.6078 80.6951 48.1503 79.7312 46.9935C78.7672 45.8367 77.429 45.0536 75.9483 44.7799C75.4672 42.0442 74.0385 39.5652 71.9126 37.7775C69.7867 35.9897 67.0993 35.0074 64.3217 35.0027H51.9045C49.1269 35.0074 46.4395 35.9897 44.3136 37.7775C42.1878 39.5652 40.759 42.0442 40.2779 44.7799C38.7973 45.0536 37.459 45.8367 36.4951 46.9935C35.5311 48.1503 35.0022 49.6078 35 51.1136V54.5881C35.0021 56.0612 35.5081 57.4893 36.434 58.635C37.36 59.7808 38.6501 60.5752 40.0899 60.8864V125.116C38.6501 125.427 37.36 126.222 36.434 127.367C35.5081 128.513 35.0021 129.941 35 131.414V134.889C35.0025 136.394 35.5315 137.852 36.4954 139.008C37.4593 140.165 38.7974 140.948 40.2779 141.221C40.7588 143.957 42.1874 146.437 44.3133 148.224C46.4393 150.012 49.1267 150.995 51.9045 151H64.3217C67.0995 150.995 69.787 150.012 71.9129 148.224C74.0388 146.437 75.4675 143.957 75.9483 141.221C77.4288 140.948 78.7669 140.165 79.7308 139.008C80.6947 137.852 81.2238 136.394 81.2262 134.889V131.414C81.2242 129.941 80.7181 128.513 79.7922 127.367C78.8663 126.222 77.5762 125.427 76.1363 125.116V117.138L87.5309 105.824C87.8316 106.087 88.2 106.261 88.5942 106.325L101.969 108.438L112.777 120.824C110.627 124.738 109.822 129.249 110.487 133.665C111.152 138.08 113.25 142.155 116.457 145.261C119.664 148.368 123.803 150.335 128.237 150.86C132.672 151.384 137.155 150.437 140.999 148.164C144.842 145.891 147.832 142.418 149.509 138.28C151.185 134.141 151.456 129.566 150.278 125.259C149.1 120.952 146.54 117.151 142.991 114.441C139.442 111.732 135.1 110.263 130.635 110.262ZM136.007 51.2274L106.895 91.4357L99.6527 82.9969L136.007 51.2274ZM79.7097 94.7213L76.1363 97.8425V89.5883L79.7097 94.7213ZM44.3862 97.8929L71.8401 76.6804V89.7881L44.3862 111.001V97.8929ZM71.8401 71.251L44.3862 92.4636V79.3773L68.1238 61.0335H71.8401V71.251ZM61.0963 61.0335L44.3862 73.9458V61.0335H61.0963ZM44.3862 116.431L71.8401 95.2185V108.317L50.2849 124.971H44.3862V116.431ZM57.3124 124.971L71.8401 113.746V124.971H57.3124ZM51.9045 39.299H64.3217C65.9404 39.301 67.5153 39.8244 68.8132 40.7917C70.1111 41.759 71.0629 43.1187 71.5275 44.6692H44.6987C45.1633 43.1187 46.1151 41.759 47.413 40.7917C48.7109 39.8244 50.2859 39.301 51.9045 39.299ZM39.2962 54.5881V51.1136C39.2968 50.544 39.5233 49.998 39.926 49.5952C40.3287 49.1925 40.8748 48.966 41.4443 48.9654H74.7808C75.3504 48.966 75.8964 49.1925 76.2991 49.5952C76.7019 49.998 76.9284 50.544 76.9289 51.1136V54.5881C76.9284 55.1577 76.7019 55.7037 76.2991 56.1064C75.8964 56.5092 75.3504 56.7357 74.7808 56.7362H41.4443C40.8748 56.7357 40.3287 56.5092 39.926 56.1064C39.5233 55.7037 39.2968 55.1577 39.2962 54.5881ZM64.3206 146.704H51.9035C50.2848 146.702 48.7098 146.179 47.4119 145.212C46.114 144.244 45.1623 142.885 44.6976 141.334H71.5264C71.0618 142.885 70.1101 144.244 68.8122 145.212C67.5143 146.179 65.9393 146.702 64.3206 146.704ZM76.9289 131.415V134.89C76.9284 135.459 76.7019 136.005 76.2991 136.408C75.8964 136.811 75.3504 137.037 74.7808 137.038H41.4443C40.8748 137.037 40.3287 136.811 39.926 136.408C39.5233 136.005 39.2968 135.459 39.2962 134.89V131.415C39.2968 130.846 39.5233 130.3 39.926 129.897C40.3287 129.494 40.8748 129.268 41.4443 129.267H74.7808C75.3504 129.268 75.8964 129.494 76.2991 129.897C76.7019 130.3 76.9284 130.846 76.9289 131.415ZM76.1352 103.548L82.1778 98.2689L84.9833 102.299L76.1352 111.084V103.548ZM97.1652 93.4088C97.1652 94.1523 96.9447 94.8791 96.5317 95.4973C96.1186 96.1154 95.5315 96.5973 94.8446 96.8818C94.1577 97.1663 93.4018 97.2408 92.6726 97.0957C91.9434 96.9507 91.2736 96.5926 90.7479 96.0669C90.2221 95.5412 89.8641 94.8714 89.7191 94.1421C89.574 93.4129 89.6484 92.6571 89.933 91.9702C90.2175 91.2833 90.6993 90.6962 91.3175 90.2831C91.9357 89.87 92.6625 89.6496 93.406 89.6496C94.4027 89.6507 95.3582 90.0471 96.0629 90.7519C96.7677 91.4566 97.1641 92.4121 97.1652 93.4088Z" fill="#161616"/>
</g>
<path d="M263.6 13.4V17.1H215.7V39.4H254.1V57H215.7V83H212V13.4H263.6Z" fill="#FFDB6E"/>
<path d="M325.123 15.7C329.123 17.5667 332.257 20.3334 334.523 24C336.857 27.6667 338.023 31.7334 338.023 36.2C338.023 41.4 336.423 46.0667 333.223 50.2001C330.09 54.2667 326.057 56.9667 321.123 58.3L338.823 83H334.423L317.323 59L314.123 59.1H289.023V83H285.323V13.4H311.823C314.757 13.4 317.257 13.6 319.323 14C321.457 14.3334 323.39 14.9 325.123 15.7ZM315.123 55.4C318.59 55.4 321.79 54.5334 324.723 52.8C327.657 51.0667 329.99 48.7334 331.723 45.8C333.457 42.8667 334.323 39.6667 334.323 36.2C334.323 32.3334 333.29 28.8334 331.223 25.7C329.223 22.5667 326.423 20.2334 322.823 18.7C320.223 17.6334 316.557 17.1 311.823 17.1H289.023V55.4H315.123Z" fill="#FFDB6E"/>
<path d="M382.147 13.4H386.047L414.647 83H410.647L401.247 60H366.947L357.447 83H353.547L382.147 13.4ZM368.447 56.4H399.747L384.047 18.2001L368.447 56.4Z" fill="#FFDB6E"/>
<path d="M430.87 83V13.4H434.77L483.37 60.6V13.4H487.07V83H483.37V65.8L434.57 18.2001V83H430.87Z" fill="#FFDB6E"/>
<path d="M508.194 56.4C508.194 60.8 509.294 64.8667 511.494 68.6C513.76 72.3334 516.76 75.3 520.494 77.5C524.294 79.7 528.394 80.8 532.794 80.8C537.327 80.8 541.427 79.9001 545.094 78.1001C548.76 76.3001 551.627 73.8 553.694 70.6C555.827 67.4 556.927 63.8 556.994 59.8H560.594C560.594 64.4 559.36 68.6 556.894 72.4C554.494 76.1334 551.16 79.1 546.894 81.3C542.694 83.4334 537.994 84.5 532.794 84.5C527.727 84.5 523.027 83.2334 518.694 80.7001C514.36 78.1667 510.927 74.7667 508.394 70.5C505.86 66.1667 504.594 61.4667 504.594 56.4V40C504.594 34.9334 505.827 30.2667 508.294 26C510.827 21.6667 514.227 18.2334 518.494 15.7C522.827 13.1667 527.527 11.9 532.594 11.9C537.727 11.9 542.394 13 546.594 15.2C550.86 17.3334 554.227 20.3 556.694 24.1C559.16 27.8334 560.394 32 560.394 36.6H556.794C556.727 32.6 555.627 29 553.494 25.8C551.36 22.6 548.46 20.1 544.794 18.3C541.194 16.5 537.127 15.6 532.594 15.6C528.194 15.6 524.127 16.7 520.394 18.9C516.66 21.1 513.694 24.0667 511.494 27.8C509.294 31.5334 508.194 35.6 508.194 40V56.4Z" fill="#FFDB6E"/>
<path d="M628.717 13.4V17.1H607.917V79.3H628.717V83H583.617V79.3H604.317V17.1H583.617V13.4H628.717Z" fill="#FFDB6E"/>
<path d="M681.64 49.7001C675.974 48.5667 671.34 47.3334 667.74 46C664.207 44.6 661.407 42.7334 659.34 40.4C657.34 38 656.34 34.9334 656.34 31.2C656.34 27.3334 657.34 23.9334 659.34 21C661.407 18.0667 664.274 15.8 667.94 14.2C671.674 12.6 675.974 11.8 680.84 11.8C685.507 11.8 689.774 12.8 693.64 14.8C697.574 16.7334 700.674 19.4667 702.94 23C705.207 26.5334 706.34 30.5667 706.34 35.1H702.64C702.64 31.1667 701.674 27.7 699.74 24.7C697.807 21.7 695.174 19.4 691.84 17.8C688.507 16.1334 684.807 15.3 680.74 15.3C677.14 15.3 673.774 15.8667 670.64 17C667.507 18.1334 664.94 19.8667 662.94 22.2C661.007 24.5334 660.04 27.4667 660.04 31C660.04 34.2 660.974 36.7667 662.84 38.7C664.707 40.5667 667.14 42 670.14 43C673.14 44 677.34 45.0667 682.74 46.2C688.207 47.3334 692.44 48.4334 695.44 49.5C698.507 50.5 701.074 52.2 703.14 54.6C705.274 57 706.34 60.3667 706.34 64.7001C706.34 69.0334 705.174 72.7001 702.84 75.7001C700.574 78.6334 697.54 80.8334 693.74 82.3C689.94 83.7667 685.807 84.5 681.34 84.5C675.807 84.5 670.94 83.4667 666.74 81.4001C662.54 79.3334 659.307 76.4334 657.04 72.7001C654.84 68.9001 653.74 64.5667 653.74 59.7001H657.44C657.44 63.9667 658.374 67.7 660.24 70.9C662.174 74.1 664.94 76.6001 668.54 78.4001C672.14 80.1334 676.407 81 681.34 81C687.474 81 692.54 79.5334 696.54 76.6001C700.607 73.6667 702.64 69.6667 702.64 64.6C702.64 61.1334 701.774 58.4667 700.04 56.6001C698.307 54.7334 696.107 53.4 693.44 52.6C690.84 51.7334 686.907 50.7667 681.64 49.7001Z" fill="#FFDB6E"/>
<path d="M264.7 156.7C264.766 165.433 262.266 172.267 257.2 177.2C252.133 182.067 245.166 184.5 236.3 184.5C231.033 184.5 226.166 183.3 221.7 180.9C217.3 178.5 213.8 175.1 211.2 170.7C208.6 166.3 207.3 161.233 207.3 155.5V140.9C207.3 135.233 208.533 130.2 211 125.8C213.533 121.4 216.966 118 221.3 115.6C225.7 113.133 230.6 111.9 236 111.9C244.866 111.9 251.8 114.333 256.8 119.2C261.866 124 264.433 130.8 264.5 139.6H246.5C246.433 136.2 245.5 133.567 243.7 131.7C241.966 129.833 239.4 128.9 236 128.9C232.933 128.9 230.4 129.867 228.4 131.8C226.4 133.733 225.4 136.467 225.4 140V156.3C225.4 159.833 226.433 162.6 228.5 164.6C230.633 166.533 233.233 167.5 236.3 167.5C243.3 167.5 246.8 163.9 246.8 156.7H264.7Z" fill="#FFDB6E"/>
<path d="M308.123 113.4H312.023L340.623 183H336.623L327.223 160H292.923L283.423 183H279.523L308.123 113.4ZM294.423 156.4H325.723L310.023 118.2L294.423 156.4Z" fill="#FFDB6E"/>
<path d="M399.147 115.7C403.147 117.567 406.28 120.333 408.547 124C410.88 127.667 412.047 131.733 412.047 136.2C412.047 141.4 410.447 146.067 407.247 150.2C404.113 154.267 400.08 156.967 395.147 158.3L412.847 183H408.447L391.347 159L388.147 159.1H363.047V183H359.347V113.4H385.847C388.78 113.4 391.28 113.6 393.347 114C395.48 114.333 397.413 114.9 399.147 115.7ZM389.147 155.4C392.613 155.4 395.813 154.533 398.747 152.8C401.68 151.067 404.013 148.733 405.747 145.8C407.48 142.867 408.347 139.667 408.347 136.2C408.347 132.333 407.313 128.833 405.247 125.7C403.247 122.567 400.447 120.233 396.847 118.7C394.247 117.633 390.58 117.1 385.847 117.1H363.047V155.4H389.147Z" fill="#FFDB6E"/>
<path d="M486.17 113.4V117.1H459.87V183H456.27V117.1H429.97V113.4H486.17Z" fill="#FFDB6E"/>
<path d="M554.694 113.4V117.1H533.894V179.3H554.694V183H509.594V179.3H530.294V117.1H509.594V113.4H554.694Z" fill="#FFDB6E"/>
<path d="M578.917 183V113.4H582.817L631.417 160.6V113.4H635.117V183H631.417V165.8L582.617 118.2V183H578.917Z" fill="#FFDB6E"/>
<defs>
<linearGradient id="paint0_linear_56_719" x1="-14" y1="-9.10783e-08" x2="185" y2="185" gradientUnits="userSpaceOnUse">
<stop offset="0.385417" stop-color="#FFDB6E"/>
<stop offset="0.708333" stop-color="#FFBC5E"/>
</linearGradient>
<clipPath id="clip0_56_719">
<rect width="185" height="185" fill="white"/>
</clipPath>
</defs>
</svg>
