<svg width="937" height="185" viewBox="0 0 937 185" fill="none" xmlns="http://www.w3.org/2000/svg">
<g clip-path="url(#clip0_57_1073)">
<path d="M0 92.5C0 41.4137 41.4137 0 92.5 0H135C162.614 0 185 22.3858 185 50V92.5C185 143.586 143.586 185 92.5 185C41.4137 185 0 143.586 0 92.5Z" fill="url(#paint0_linear_57_1073)"/>
<path d="M141.641 130.631C141.641 128.453 140.995 126.324 139.785 124.514C138.575 122.703 136.855 121.292 134.843 120.458C132.831 119.625 130.617 119.407 128.481 119.832C126.345 120.256 124.383 121.305 122.843 122.845C121.303 124.385 120.255 126.347 119.83 128.483C119.405 130.619 119.623 132.833 120.456 134.845C121.29 136.857 122.701 138.577 124.512 139.787C126.323 140.997 128.452 141.642 130.63 141.642C133.549 141.639 136.348 140.478 138.412 138.414C140.476 136.35 141.638 133.551 141.641 130.631ZM123.915 130.631C123.915 129.303 124.308 128.005 125.046 126.901C125.784 125.796 126.833 124.936 128.06 124.427C129.287 123.919 130.637 123.786 131.94 124.045C133.242 124.304 134.439 124.944 135.378 125.883C136.317 126.822 136.956 128.019 137.215 129.321C137.475 130.624 137.342 131.974 136.833 133.201C136.325 134.428 135.464 135.477 134.36 136.215C133.256 136.952 131.958 137.346 130.63 137.346C128.849 137.344 127.142 136.636 125.884 135.377C124.625 134.118 123.917 132.412 123.915 130.631ZM130.635 110.262C128.374 110.257 126.128 110.632 123.991 111.369L122.446 109.568C118.872 105.4 114.473 100.27 109.771 94.7889L150.59 38.4107C150.9 37.9832 151.042 37.4562 150.989 36.9304C150.935 36.4047 150.69 35.9172 150.3 35.5611C149.909 35.2049 149.401 35.0052 148.873 35.0001C148.344 34.995 147.833 35.1848 147.435 35.5333L96.8527 79.7371C92.4641 74.6257 88.1915 69.655 84.4173 65.2696C84.0421 64.8506 83.5175 64.5955 82.9563 64.5591C82.395 64.5226 81.8419 64.7077 81.4156 65.0746C80.9894 65.4415 80.724 65.9609 80.6766 66.5214C80.6291 67.0818 80.8033 67.6384 81.1618 68.0718C92.8131 81.6081 109.195 100.714 119.184 112.364L121.72 115.322C122.02 115.671 122.424 115.915 122.872 116.017C123.321 116.12 123.791 116.076 124.212 115.891C126.237 115.005 128.424 114.551 130.634 114.557C134.215 114.556 137.694 115.751 140.52 117.951C143.345 120.152 145.355 123.233 146.231 126.706C147.107 130.178 146.799 133.844 145.355 137.121C143.912 140.399 141.415 143.101 138.262 144.799C135.108 146.496 131.479 147.093 127.948 146.494C124.417 145.895 121.187 144.134 118.77 141.491C116.353 138.848 114.888 135.474 114.606 131.904C114.324 128.334 115.242 124.771 117.215 121.782C117.475 121.39 117.6 120.923 117.569 120.453C117.538 119.983 117.354 119.536 117.044 119.182L104.692 105.025C104.361 104.645 103.907 104.394 103.41 104.315L90.1688 102.224L89.5835 101.383L89.5673 101.359L76.1363 82.0689V60.8864C77.5762 60.5752 78.8663 59.7808 79.7922 58.635C80.7181 57.4893 81.2242 56.0612 81.2262 54.5881V51.1136C81.224 49.6078 80.6951 48.1503 79.7312 46.9935C78.7672 45.8367 77.429 45.0536 75.9483 44.7799C75.4672 42.0442 74.0385 39.5652 71.9126 37.7775C69.7867 35.9897 67.0993 35.0074 64.3217 35.0027H51.9045C49.1269 35.0074 46.4395 35.9897 44.3136 37.7775C42.1878 39.5652 40.759 42.0442 40.2779 44.7799C38.7973 45.0536 37.459 45.8367 36.4951 46.9935C35.5311 48.1503 35.0022 49.6078 35 51.1136V54.5881C35.0021 56.0612 35.5081 57.4893 36.434 58.635C37.36 59.7808 38.6501 60.5752 40.0899 60.8864V125.116C38.6501 125.427 37.36 126.222 36.434 127.367C35.5081 128.513 35.0021 129.941 35 131.414V134.889C35.0025 136.394 35.5315 137.852 36.4954 139.008C37.4593 140.165 38.7974 140.948 40.2779 141.221C40.7588 143.957 42.1874 146.437 44.3133 148.224C46.4393 150.012 49.1267 150.995 51.9045 151H64.3217C67.0995 150.995 69.787 150.012 71.9129 148.224C74.0388 146.437 75.4675 143.957 75.9483 141.221C77.4288 140.948 78.7669 140.165 79.7308 139.008C80.6947 137.852 81.2238 136.394 81.2262 134.889V131.414C81.2242 129.941 80.7181 128.513 79.7922 127.367C78.8663 126.222 77.5762 125.427 76.1363 125.116V117.138L87.5309 105.824C87.8316 106.087 88.2 106.261 88.5942 106.325L101.969 108.438L112.777 120.824C110.627 124.738 109.822 129.249 110.487 133.665C111.152 138.08 113.25 142.155 116.457 145.261C119.664 148.368 123.803 150.335 128.237 150.86C132.672 151.384 137.155 150.437 140.999 148.164C144.842 145.891 147.832 142.418 149.509 138.28C151.185 134.141 151.456 129.566 150.278 125.259C149.1 120.952 146.54 117.151 142.991 114.441C139.442 111.732 135.1 110.263 130.635 110.262ZM136.007 51.2274L106.895 91.4357L99.6527 82.9969L136.007 51.2274ZM79.7097 94.7213L76.1363 97.8425V89.5883L79.7097 94.7213ZM44.3862 97.8929L71.8401 76.6804V89.7881L44.3862 111.001V97.8929ZM71.8401 71.251L44.3862 92.4636V79.3773L68.1238 61.0335H71.8401V71.251ZM61.0963 61.0335L44.3862 73.9458V61.0335H61.0963ZM44.3862 116.431L71.8401 95.2185V108.317L50.2849 124.971H44.3862V116.431ZM57.3124 124.971L71.8401 113.746V124.971H57.3124ZM51.9045 39.299H64.3217C65.9404 39.301 67.5153 39.8244 68.8132 40.7917C70.1111 41.759 71.0629 43.1187 71.5275 44.6692H44.6987C45.1633 43.1187 46.1151 41.759 47.413 40.7917C48.7109 39.8244 50.2859 39.301 51.9045 39.299ZM39.2962 54.5881V51.1136C39.2968 50.544 39.5233 49.998 39.926 49.5952C40.3287 49.1925 40.8748 48.966 41.4443 48.9654H74.7808C75.3504 48.966 75.8964 49.1925 76.2991 49.5952C76.7019 49.998 76.9284 50.544 76.9289 51.1136V54.5881C76.9284 55.1577 76.7019 55.7037 76.2991 56.1064C75.8964 56.5092 75.3504 56.7357 74.7808 56.7362H41.4443C40.8748 56.7357 40.3287 56.5092 39.926 56.1064C39.5233 55.7037 39.2968 55.1577 39.2962 54.5881ZM64.3206 146.704H51.9035C50.2848 146.702 48.7098 146.179 47.4119 145.212C46.114 144.244 45.1623 142.885 44.6976 141.334H71.5264C71.0618 142.885 70.1101 144.244 68.8122 145.212C67.5143 146.179 65.9393 146.702 64.3206 146.704ZM76.9289 131.415V134.89C76.9284 135.459 76.7019 136.005 76.2991 136.408C75.8964 136.811 75.3504 137.037 74.7808 137.038H41.4443C40.8748 137.037 40.3287 136.811 39.926 136.408C39.5233 136.005 39.2968 135.459 39.2962 134.89V131.415C39.2968 130.846 39.5233 130.3 39.926 129.897C40.3287 129.494 40.8748 129.268 41.4443 129.267H74.7808C75.3504 129.268 75.8964 129.494 76.2991 129.897C76.7019 130.3 76.9284 130.846 76.9289 131.415ZM76.1352 103.548L82.1778 98.2689L84.9833 102.299L76.1352 111.084V103.548ZM97.1652 93.4088C97.1652 94.1523 96.9447 94.8791 96.5317 95.4973C96.1186 96.1154 95.5315 96.5973 94.8446 96.8818C94.1577 97.1663 93.4018 97.2408 92.6726 97.0957C91.9434 96.9507 91.2736 96.5926 90.7479 96.0669C90.2221 95.5412 89.8641 94.8714 89.7191 94.1421C89.574 93.4129 89.6484 92.6571 89.933 91.9702C90.2175 91.2833 90.6993 90.6962 91.3175 90.2831C91.9357 89.87 92.6625 89.6496 93.406 89.6496C94.4027 89.6507 95.3582 90.0471 96.0629 90.7519C96.7677 91.4566 97.1641 92.4121 97.1652 93.4088Z" fill="#161616"/>
</g>
<path d="M215.9 83V13.4H245C249.867 13.4 254.067 14.3 257.6 16.1C261.667 18.1667 264.9 21.1334 267.3 25C269.7 28.8 270.9 33 270.9 37.6C270.9 42.2 269.7 46.4334 267.3 50.3C264.967 54.1667 261.767 57.1334 257.7 59.2001C254.234 61.0001 250 61.9 245 61.9H234.1V83H215.9Z" fill="#FFDB6E"/>
<path d="M328.124 15.7C332.124 17.5667 335.257 20.3334 337.524 24C339.857 27.6667 341.024 31.7334 341.024 36.2C341.024 41.4 339.424 46.0667 336.224 50.2001C333.09 54.2667 329.057 56.9667 324.124 58.3L341.824 83H337.424L320.324 59L317.124 59.1H292.024V83H288.324V13.4H314.824C317.757 13.4 320.257 13.6 322.324 14C324.457 14.3334 326.39 14.9 328.124 15.7ZM318.124 55.4C321.59 55.4 324.79 54.5334 327.724 52.8C330.657 51.0667 332.99 48.7334 334.724 45.8C336.457 42.8667 337.324 39.6667 337.324 36.2C337.324 32.3334 336.29 28.8334 334.224 25.7C332.224 22.5667 329.424 20.2334 325.824 18.7C323.224 17.6334 319.557 17.1 314.824 17.1H292.024V55.4H318.124Z" fill="#FFDB6E"/>
<path d="M363.047 13.4H412.047V17.1H366.747V45.3H406.147V49H366.747V79.3H412.047V83H363.047V13.4Z" fill="#FFDB6E"/>
<path d="M437.171 56.4C437.171 60.8 438.271 64.8667 440.471 68.6C442.737 72.3334 445.737 75.3 449.471 77.5C453.271 79.7 457.371 80.8 461.771 80.8C466.304 80.8 470.404 79.9001 474.07 78.1001C477.737 76.3001 480.604 73.8 482.671 70.6C484.804 67.4 485.904 63.8 485.97 59.8H489.57C489.57 64.4 488.337 68.6 485.87 72.4C483.47 76.1334 480.137 79.1 475.87 81.3C471.67 83.4334 466.971 84.5 461.771 84.5C456.704 84.5 452.004 83.2334 447.671 80.7001C443.337 78.1667 439.904 74.7667 437.371 70.5C434.837 66.1667 433.571 61.4667 433.571 56.4V40C433.571 34.9334 434.804 30.2667 437.271 26C439.804 21.6667 443.204 18.2334 447.471 15.7C451.804 13.1667 456.504 11.9 461.571 11.9C466.704 11.9 471.37 13 475.57 15.2C479.837 17.3334 483.204 20.3 485.671 24.1C488.137 27.8334 489.371 32 489.371 36.6H485.771C485.704 32.6 484.604 29 482.47 25.8C480.337 22.6 477.437 20.1 473.771 18.3C470.171 16.5 466.104 15.6 461.571 15.6C457.171 15.6 453.104 16.7 449.371 18.9C445.637 21.1 442.671 24.0667 440.471 27.8C438.271 31.5334 437.171 35.6 437.171 40V56.4Z" fill="#FFDB6E"/>
<path d="M557.694 13.4V17.1H536.894V79.3H557.694V83H512.594V79.3H533.294V17.1H512.594V13.4H557.694Z" fill="#FFDB6E"/>
<path d="M610.617 49.7001C604.951 48.5667 600.317 47.3334 596.717 46C593.184 44.6 590.384 42.7334 588.317 40.4C586.317 38 585.317 34.9334 585.317 31.2C585.317 27.3334 586.317 23.9334 588.317 21C590.384 18.0667 593.251 15.8 596.917 14.2C600.651 12.6 604.951 11.8 609.817 11.8C614.484 11.8 618.751 12.8 622.617 14.8C626.551 16.7334 629.651 19.4667 631.917 23C634.184 26.5334 635.317 30.5667 635.317 35.1H631.617C631.617 31.1667 630.651 27.7 628.717 24.7C626.784 21.7 624.151 19.4 620.817 17.8C617.484 16.1334 613.784 15.3 609.717 15.3C606.117 15.3 602.751 15.8667 599.617 17C596.484 18.1334 593.917 19.8667 591.917 22.2C589.984 24.5334 589.017 27.4667 589.017 31C589.017 34.2 589.951 36.7667 591.817 38.7C593.684 40.5667 596.117 42 599.117 43C602.117 44 606.317 45.0667 611.717 46.2C617.184 47.3334 621.417 48.4334 624.417 49.5C627.484 50.5 630.051 52.2 632.117 54.6C634.251 57 635.317 60.3667 635.317 64.7001C635.317 69.0334 634.151 72.7001 631.817 75.7001C629.551 78.6334 626.517 80.8334 622.717 82.3C618.917 83.7667 614.784 84.5 610.317 84.5C604.784 84.5 599.917 83.4667 595.717 81.4001C591.517 79.3334 588.284 76.4334 586.017 72.7001C583.817 68.9001 582.717 64.5667 582.717 59.7001H586.417C586.417 63.9667 587.351 67.7 589.217 70.9C591.151 74.1 593.917 76.6001 597.517 78.4001C601.117 80.1334 605.384 81 610.317 81C616.451 81 621.517 79.5334 625.517 76.6001C629.584 73.6667 631.617 69.6667 631.617 64.6C631.617 61.1334 630.751 58.4667 629.017 56.6001C627.284 54.7334 625.084 53.4 622.417 52.6C619.817 51.7334 615.884 50.7667 610.617 49.7001Z" fill="#FFDB6E"/>
<path d="M659.141 13.4H708.141V17.1H662.841V45.3H702.241V49H662.841V79.3H708.141V83H659.141V13.4Z" fill="#FFDB6E"/>
<path d="M243.9 113.4C248.3 113.4 251.8 114.067 254.4 115.4C257.534 117 259.934 119.2 261.6 122C263.334 124.8 264.2 127.933 264.2 131.4C264.2 134.667 263.334 137.7 261.6 140.5C259.867 143.233 257.5 145.4 254.5 147C258.1 148.267 261.134 150.467 263.6 153.6C266.067 156.733 267.3 160.267 267.3 164.2C267.3 167.667 266.4 170.867 264.6 173.8C262.867 176.667 260.534 178.933 257.6 180.6C256.134 181.4 254.5 182 252.7 182.4C250.9 182.8 248.5 183 245.5 183H214.7V113.4H243.9Z" fill="#FFDB6E"/>
<path d="M311.124 113.4H315.024L343.624 183H339.624L330.224 160H295.924L286.424 183H282.524L311.124 113.4ZM297.424 156.4H328.724L313.024 118.2L297.424 156.4Z" fill="#FFDB6E"/>
<path d="M402.147 115.7C406.147 117.567 409.28 120.333 411.547 124C413.88 127.667 415.047 131.733 415.047 136.2C415.047 141.4 413.447 146.067 410.247 150.2C407.114 154.267 403.08 156.967 398.147 158.3L415.847 183H411.447L394.347 159L391.147 159.1H366.047V183H362.347V113.4H388.847C391.78 113.4 394.28 113.6 396.347 114C398.48 114.333 400.414 114.9 402.147 115.7ZM392.147 155.4C395.614 155.4 398.814 154.533 401.747 152.8C404.68 151.067 407.014 148.733 408.747 145.8C410.48 142.867 411.347 139.667 411.347 136.2C411.347 132.333 410.314 128.833 408.247 125.7C406.247 122.567 403.447 120.233 399.847 118.7C397.247 117.633 393.58 117.1 388.847 117.1H366.047V155.4H392.147Z" fill="#FFDB6E"/>
<path d="M475.07 115.4C478.204 117 480.604 119.2 482.271 122C484.004 124.8 484.871 127.933 484.871 131.4C484.871 134.667 484.004 137.7 482.271 140.5C480.604 143.233 478.271 145.4 475.271 147C478.804 148.2 481.737 150.4 484.07 153.6C486.404 156.8 487.57 160.333 487.57 164.2C487.57 167.667 486.704 170.867 484.97 173.8C483.237 176.733 480.937 179 478.07 180.6C476.604 181.4 474.971 182 473.171 182.4C471.371 182.8 468.971 183 465.971 183H436.771V113.4H464.571C468.971 113.4 472.47 114.067 475.07 115.4ZM473.47 144.1C475.87 142.9 477.771 141.167 479.171 138.9C480.571 136.633 481.271 134.133 481.271 131.4C481.271 128.333 480.471 125.667 478.871 123.4C477.271 121.067 475.237 119.367 472.771 118.3C470.904 117.5 467.77 117.1 463.37 117.1H440.371V145.7H465.171C468.637 145.7 471.404 145.167 473.47 144.1ZM475.87 177.8C478.337 176.533 480.304 174.7 481.771 172.3C483.237 169.833 483.97 167.167 483.97 164.3C483.97 161.3 483.204 158.6 481.671 156.2C480.137 153.733 478.07 151.9 475.47 150.7C473.47 149.767 470.77 149.3 467.37 149.3H440.371V179.4H466.071C468.604 179.4 470.604 179.267 472.07 179C473.537 178.733 474.804 178.333 475.87 177.8Z" fill="#FFDB6E"/>
<path d="M533.194 113.4H537.094L565.694 183H561.694L552.294 160H517.994L508.494 183H504.594L533.194 113.4ZM519.494 156.4H550.794L535.094 118.2L519.494 156.4Z" fill="#FFDB6E"/>
<path d="M624.217 115.7C628.217 117.567 631.351 120.333 633.617 124C635.951 127.667 637.117 131.733 637.117 136.2C637.117 141.4 635.517 146.067 632.317 150.2C629.184 154.267 625.151 156.967 620.217 158.3L637.917 183H633.517L616.417 159L613.217 159.1H588.117V183H584.417V113.4H610.917C613.851 113.4 616.351 113.6 618.417 114C620.551 114.333 622.484 114.9 624.217 115.7ZM614.217 155.4C617.684 155.4 620.884 154.533 623.817 152.8C626.751 151.067 629.084 148.733 630.817 145.8C632.551 142.867 633.417 139.667 633.417 136.2C633.417 132.333 632.384 128.833 630.317 125.7C628.317 122.567 625.517 120.233 621.917 118.7C619.317 117.633 615.651 117.1 610.917 117.1H588.117V155.4H614.217Z" fill="#FFDB6E"/>
<path d="M684.641 149.7C678.974 148.567 674.341 147.333 670.741 146C667.207 144.6 664.407 142.733 662.341 140.4C660.341 138 659.341 134.933 659.341 131.2C659.341 127.333 660.341 123.933 662.341 121C664.407 118.067 667.274 115.8 670.941 114.2C674.674 112.6 678.974 111.8 683.841 111.8C688.507 111.8 692.774 112.8 696.641 114.8C700.574 116.733 703.674 119.467 705.941 123C708.207 126.533 709.341 130.567 709.341 135.1H705.641C705.641 131.167 704.674 127.7 702.741 124.7C700.807 121.7 698.174 119.4 694.841 117.8C691.507 116.133 687.807 115.3 683.741 115.3C680.141 115.3 676.774 115.867 673.641 117C670.507 118.133 667.941 119.867 665.941 122.2C664.007 124.533 663.041 127.467 663.041 131C663.041 134.2 663.974 136.767 665.841 138.7C667.707 140.567 670.141 142 673.141 143C676.141 144 680.341 145.067 685.741 146.2C691.207 147.333 695.441 148.433 698.441 149.5C701.507 150.5 704.074 152.2 706.141 154.6C708.274 157 709.341 160.367 709.341 164.7C709.341 169.033 708.174 172.7 705.841 175.7C703.574 178.633 700.541 180.833 696.741 182.3C692.941 183.767 688.807 184.5 684.341 184.5C678.807 184.5 673.941 183.467 669.741 181.4C665.541 179.333 662.307 176.433 660.041 172.7C657.841 168.9 656.741 164.567 656.741 159.7H660.441C660.441 163.967 661.374 167.7 663.241 170.9C665.174 174.1 667.941 176.6 671.541 178.4C675.141 180.133 679.407 181 684.341 181C690.474 181 695.541 179.533 699.541 176.6C703.607 173.667 705.641 169.667 705.641 164.6C705.641 161.133 704.774 158.467 703.041 156.6C701.307 154.733 699.107 153.4 696.441 152.6C693.841 151.733 689.907 150.767 684.641 149.7Z" fill="#FFDB6E"/>
<path d="M730.364 183V113.4H734.064V146.3H780.264V113.4H783.964V183H780.264V150H734.064V183H730.364Z" fill="#FFDB6E"/>
<path d="M831.188 111.9C836.388 111.9 841.188 113.2 845.588 115.8C849.988 118.333 853.454 121.8 855.988 126.2C858.588 130.6 859.888 135.4 859.888 140.6V155.8C859.888 161 858.588 165.8 855.988 170.2C853.454 174.6 849.988 178.1 845.588 180.7C841.188 183.233 836.388 184.5 831.188 184.5C825.988 184.5 821.188 183.233 816.788 180.7C812.388 178.1 808.888 174.6 806.288 170.2C803.754 165.8 802.488 161 802.488 155.8V140.6C802.488 135.4 803.754 130.6 806.288 126.2C808.888 121.8 812.388 118.333 816.788 115.8C821.188 113.2 825.988 111.9 831.188 111.9ZM806.188 155.8C806.188 160.333 807.288 164.533 809.488 168.4C811.754 172.2 814.788 175.233 818.588 177.5C822.454 179.7 826.654 180.8 831.188 180.8C835.721 180.8 839.888 179.7 843.688 177.5C847.554 175.233 850.588 172.2 852.788 168.4C855.054 164.533 856.188 160.333 856.188 155.8V140.6C856.188 136.067 855.054 131.9 852.788 128.1C850.588 124.233 847.554 121.2 843.688 119C839.888 116.733 835.721 115.6 831.188 115.6C826.654 115.6 822.454 116.733 818.588 119C814.788 121.2 811.754 124.233 809.488 128.1C807.288 131.9 806.188 136.067 806.188 140.6V155.8Z" fill="#FFDB6E"/>
<path d="M885.811 183H882.111V113.4H910.111C914.778 113.4 919.078 114.4 923.011 116.4C927.011 118.4 930.178 121.233 932.511 124.9C934.844 128.567 936.011 132.8 936.011 137.6C936.011 142.2 934.811 146.433 932.411 150.3C930.078 154.167 926.878 157.133 922.811 159.2C919.278 161 915.044 161.9 910.111 161.9H885.811V183ZM885.811 158.2H910.111C914.378 158.2 917.878 157.533 920.611 156.2C924.144 154.533 926.978 152.033 929.111 148.7C931.244 145.367 932.311 141.667 932.311 137.6C932.311 133.6 931.244 129.933 929.111 126.6C926.978 123.267 924.111 120.767 920.511 119.1C917.778 117.767 914.311 117.1 910.111 117.1H885.811V158.2Z" fill="#FFDB6E"/>
<defs>
<linearGradient id="paint0_linear_57_1073" x1="-14" y1="-9.10783e-08" x2="185" y2="185" gradientUnits="userSpaceOnUse">
<stop offset="0.385417" stop-color="#FFDB6E"/>
<stop offset="0.708333" stop-color="#FFBC5E"/>
</linearGradient>
<clipPath id="clip0_57_1073">
<rect width="185" height="185" fill="white"/>
</clipPath>
</defs>
</svg>
